<?xml version="1.0" encoding="UTF-8" standalone="no"?>
<!-- Created with Serif DrawPlus 11, 0, 0, 18 (Mar 20, 15:09:53) (http://www.serif.com) -->
<svg version="1.1" xmlns="http://www.w3.org/2000/svg" xmlns:xlink="http://www.w3.org/1999/xlink" xmlns:i="http://ns.adobe.com/AdobeIllustrator/10.0/" width="166.693" height="309.625">
	<g id="dp_group001" transform="matrix(1,0,0,1,-477.912,-567.888)">
		<path id="dp_path003" fill="white" fill-rule="evenodd" d="M 477.931,583.133 C 477.931,574.715 484.945,567.888 493.597,567.888 L 628.92,567.888 C 637.572,567.888 644.585,574.715 644.585,583.133 L 644.585,862.243 C 644.585,870.661 637.572,877.487 628.92,877.487 L 493.597,877.487 C 484.945,877.487 477.931,870.661 477.931,862.243 Z "/>
		<g id="dp_group004">
			<path id="dp_path005" fill="black" fill-rule="evenodd" d="M 481.525,584.1 L 481.547,583.763 L 481.58,583.423 L 481.619,583.085 L 481.663,582.757 L 481.721,582.429 L 481.783,582.101 L 481.855,581.779 L 481.935,581.459 L 482.021,581.141 L 482.117,580.828 L 482.22,580.519 L 482.329,580.209 L 482.445,579.908 L 482.572,579.609 L 482.703,579.311 L 482.841,579.017 L 482.987,578.729 L 483.14,578.445 L 483.3,578.164 L 483.465,577.888 L 483.637,577.617 L 483.819,577.349 L 484.004,577.087 L 484.196,576.827 L 484.392,576.576 L 484.6,576.323 L 484.808,576.079 L 485.021,575.844 L 485.247,575.608 L 485.472,575.38 L 485.704,575.159 L 485.944,574.936 L 486.184,574.728 L 486.431,574.523 L 486.689,574.319 L 486.944,574.125 L 487.208,573.937 L 487.476,573.755 L 487.749,573.577 L 488.024,573.408 L 488.305,573.245 L 488.592,573.088 L 488.879,572.937 L 489.173,572.795 L 489.471,572.657 L 489.775,572.529 L 490.079,572.405 L 490.385,572.292 L 490.7,572.183 L 491.016,572.083 L 491.333,571.988 L 491.657,571.904 L 491.983,571.825 L 492.311,571.755 L 492.645,571.693 L 492.977,571.636 L 493.312,571.592 L 493.656,571.555 L 494.001,571.521 L 494.344,571.501 L 494.689,571.487 L 495.049,571.485 L 627.467,571.485 L 627.825,571.487 L 628.171,571.501 L 628.515,571.521 L 628.86,571.555 L 629.204,571.592 L 629.539,571.636 L 629.871,571.693 L 630.205,571.755 L 630.533,571.825 L 630.859,571.904 L 631.183,571.988 L 631.5,572.083 L 631.815,572.183 L 632.131,572.292 L 632.437,572.405 L 632.741,572.529 L 633.045,572.657 L 633.343,572.795 L 633.636,572.937 L 633.924,573.088 L 634.211,573.245 L 634.492,573.408 L 634.767,573.577 L 635.04,573.755 L 635.308,573.937 L 635.571,574.125 L 635.827,574.319 L 636.084,574.523 L 636.332,574.728 L 636.572,574.936 L 636.812,575.159 L 637.044,575.38 L 637.269,575.608 L 637.495,575.844 L 637.708,576.079 L 637.915,576.323 L 638.123,576.576 L 638.32,576.827 L 638.512,577.087 L 638.697,577.349 L 638.877,577.617 L 639.051,577.888 L 639.215,578.164 L 639.375,578.445 L 639.528,578.729 L 639.675,579.017 L 639.813,579.311 L 639.944,579.609 L 640.071,579.908 L 640.185,580.209 L 640.296,580.519 L 640.399,580.828 L 640.495,581.141 L 640.581,581.459 L 640.661,581.779 L 640.732,582.101 L 640.795,582.429 L 640.852,582.757 L 640.897,583.085 L 640.936,583.423 L 640.969,583.763 L 640.991,584.1 L 641.004,584.44 L 641.007,584.793 L 641.007,860.668 L 641.004,861.021 L 640.991,861.361 L 640.969,861.699 L 640.936,862.039 L 640.897,862.376 L 640.852,862.704 L 640.795,863.031 L 640.732,863.36 L 640.661,863.681 L 640.581,864.003 L 640.495,864.32 L 640.399,864.633 L 640.296,864.943 L 640.185,865.252 L 640.071,865.553 L 639.944,865.852 L 639.813,866.151 L 639.675,866.443 L 639.528,866.732 L 639.375,867.015 L 639.215,867.296 L 639.051,867.573 L 638.877,867.844 L 638.697,868.112 L 638.512,868.375 L 638.32,868.633 L 638.123,868.885 L 637.915,869.139 L 637.708,869.383 L 637.495,869.617 L 637.269,869.853 L 637.044,870.081 L 636.812,870.303 L 636.572,870.524 L 636.332,870.733 L 636.084,870.937 L 635.827,871.143 L 635.571,871.336 L 635.308,871.524 L 635.04,871.707 L 634.767,871.884 L 634.492,872.053 L 634.211,872.216 L 633.924,872.373 L 633.636,872.524 L 633.343,872.667 L 633.045,872.803 L 632.741,872.932 L 632.437,873.056 L 632.131,873.169 L 631.815,873.277 L 631.5,873.379 L 631.183,873.473 L 630.859,873.557 L 630.533,873.636 L 630.205,873.707 L 629.871,873.768 L 629.539,873.825 L 629.204,873.869 L 628.86,873.907 L 628.515,873.94 L 628.171,873.96 L 627.825,873.975 L 627.467,873.976 L 495.049,873.976 L 494.689,873.975 L 494.344,873.96 L 494.001,873.94 L 493.656,873.907 L 493.312,873.869 L 492.977,873.825 L 492.645,873.768 L 492.311,873.707 L 491.983,873.636 L 491.657,873.557 L 491.333,873.473 L 491.016,873.379 L 490.7,873.277 L 490.385,873.169 L 490.079,873.056 L 489.775,872.932 L 489.471,872.803 L 489.173,872.667 L 488.879,872.524 L 488.592,872.373 L 488.305,872.216 L 488.024,872.053 L 487.749,871.884 L 487.476,871.707 L 487.208,871.524 L 486.944,871.336 L 486.689,871.143 L 486.431,870.937 L 486.184,870.733 L 485.944,870.524 L 485.704,870.303 L 485.472,870.081 L 485.247,869.853 L 485.021,869.617 L 484.808,869.383 L 484.6,869.139 L 484.392,868.885 L 484.196,868.633 L 484.004,868.375 L 483.819,868.112 L 483.637,867.844 L 483.465,867.573 L 483.3,867.296 L 483.14,867.015 L 482.987,866.732 L 482.841,866.443 L 482.703,866.151 L 482.572,865.852 L 482.445,865.553 L 482.329,865.252 L 482.22,864.943 L 482.117,864.633 L 482.021,864.32 L 481.935,864.003 L 481.855,863.681 L 481.783,863.36 L 481.721,863.031 L 481.663,862.704 L 481.619,862.376 L 481.58,862.039 L 481.547,861.699 L 481.525,861.361 L 481.511,861.021 L 481.509,860.668 L 481.509,584.793 L 481.511,584.44 L 481.525,584.1 L 480.329,584.041 L 480.315,584.412 L 480.311,584.791 L 480.311,860.671 L 480.315,861.049 L 480.329,861.42 L 480.353,861.789 L 480.387,862.157 L 480.429,862.52 L 480.48,862.88 L 480.541,863.239 L 480.609,863.592 L 480.688,863.945 L 480.775,864.295 L 480.871,864.64 L 480.972,864.981 L 481.084,865.32 L 481.204,865.655 L 481.332,865.984 L 481.468,866.311 L 481.612,866.635 L 481.764,866.952 L 481.923,867.267 L 482.088,867.577 L 482.261,867.881 L 482.441,868.183 L 482.631,868.479 L 482.827,868.772 L 483.029,869.057 L 483.236,869.339 L 483.452,869.615 L 483.676,869.887 L 483.903,870.152 L 484.139,870.409 L 484.38,870.664 L 484.624,870.915 L 484.879,871.155 L 485.137,871.392 L 485.4,871.623 L 485.671,871.847 L 485.947,872.067 L 486.228,872.279 L 486.515,872.483 L 486.804,872.681 L 487.103,872.875 L 487.404,873.06 L 487.711,873.237 L 488.019,873.407 L 488.336,873.571 L 488.656,873.725 L 488.979,873.875 L 489.308,874.016 L 489.64,874.151 L 489.976,874.276 L 490.317,874.393 L 490.66,874.504 L 491.008,874.604 L 491.359,874.699 L 491.715,874.784 L 492.075,874.86 L 492.433,874.928 L 492.799,874.988 L 493.164,875.039 L 493.533,875.079 L 493.908,875.112 L 494.284,875.136 L 494.661,875.149 L 495.047,875.155 L 627.469,875.155 L 627.855,875.149 L 628.232,875.136 L 628.608,875.112 L 628.981,875.079 L 629.351,875.039 L 629.717,874.988 L 630.081,874.928 L 630.441,874.86 L 630.801,874.784 L 631.156,874.699 L 631.508,874.604 L 631.855,874.504 L 632.199,874.393 L 632.54,874.276 L 632.876,874.151 L 633.208,874.016 L 633.537,873.875 L 633.86,873.725 L 634.18,873.571 L 634.497,873.407 L 634.805,873.237 L 635.112,873.06 L 635.413,872.875 L 635.712,872.681 L 636.001,872.483 L 636.288,872.279 L 636.569,872.067 L 636.845,871.847 L 637.116,871.623 L 637.379,871.392 L 637.637,871.155 L 637.891,870.915 L 638.136,870.664 L 638.377,870.409 L 638.612,870.152 L 638.84,869.887 L 639.063,869.615 L 639.279,869.339 L 639.487,869.057 L 639.688,868.772 L 639.885,868.479 L 640.073,868.183 L 640.255,867.881 L 640.427,867.577 L 640.593,867.267 L 640.752,866.952 L 640.904,866.635 L 641.048,866.311 L 641.184,865.984 L 641.312,865.655 L 641.432,865.32 L 641.543,864.981 L 641.645,864.64 L 641.741,864.295 L 641.828,863.945 L 641.907,863.592 L 641.975,863.239 L 642.036,862.88 L 642.087,862.52 L 642.128,862.157 L 642.163,861.789 L 642.187,861.42 L 642.2,861.049 L 642.205,860.671 L 642.205,584.791 L 642.2,584.412 L 642.187,584.041 L 642.163,583.672 L 642.128,583.304 L 642.087,582.94 L 642.036,582.581 L 641.975,582.223 L 641.907,581.869 L 641.828,581.515 L 641.741,581.167 L 641.645,580.82 L 641.543,580.48 L 641.432,580.141 L 641.312,579.807 L 641.184,579.477 L 641.048,579.149 L 640.904,578.827 L 640.752,578.509 L 640.593,578.195 L 640.427,577.883 L 640.255,577.58 L 640.073,577.279 L 639.885,576.983 L 639.688,576.689 L 639.487,576.404 L 639.279,576.123 L 639.063,575.847 L 638.84,575.575 L 638.612,575.309 L 638.377,575.051 L 638.136,574.797 L 637.891,574.547 L 637.637,574.307 L 637.379,574.069 L 637.116,573.839 L 636.845,573.615 L 636.569,573.395 L 636.288,573.183 L 636.001,572.979 L 635.712,572.78 L 635.413,572.587 L 635.112,572.401 L 634.805,572.224 L 634.497,572.055 L 634.18,571.891 L 633.86,571.735 L 633.537,571.585 L 633.208,571.444 L 632.876,571.311 L 632.54,571.185 L 632.199,571.068 L 631.855,570.957 L 631.508,570.857 L 631.156,570.763 L 630.801,570.677 L 630.441,570.6 L 630.081,570.533 L 629.717,570.473 L 629.351,570.423 L 628.981,570.383 L 628.608,570.349 L 628.232,570.325 L 627.855,570.312 L 627.469,570.307 L 495.047,570.307 L 494.661,570.312 L 494.284,570.325 L 493.908,570.349 L 493.533,570.383 L 493.164,570.423 L 492.799,570.473 L 492.433,570.533 L 492.075,570.6 L 491.715,570.677 L 491.359,570.763 L 491.008,570.857 L 490.66,570.957 L 490.317,571.068 L 489.976,571.185 L 489.64,571.311 L 489.308,571.444 L 488.979,571.585 L 488.656,571.735 L 488.336,571.891 L 488.019,572.055 L 487.711,572.224 L 487.404,572.401 L 487.103,572.587 L 486.804,572.78 L 486.515,572.979 L 486.228,573.183 L 485.947,573.395 L 485.671,573.615 L 485.4,573.839 L 485.137,574.069 L 484.879,574.307 L 484.624,574.547 L 484.38,574.797 L 484.139,575.051 L 483.903,575.309 L 483.676,575.575 L 483.452,575.847 L 483.236,576.123 L 483.029,576.404 L 482.827,576.689 L 482.631,576.983 L 482.441,577.279 L 482.261,577.58 L 482.088,577.883 L 481.923,578.195 L 481.764,578.509 L 481.612,578.827 L 481.468,579.149 L 481.332,579.477 L 481.204,579.807 L 481.084,580.141 L 480.972,580.48 L 480.871,580.82 L 480.775,581.167 L 480.688,581.515 L 480.609,581.869 L 480.541,582.223 L 480.48,582.581 L 480.429,582.94 L 480.387,583.304 L 480.353,583.672 L 480.329,584.041 Z "/>
			<path id="dp_path006" fill="black" fill-rule="evenodd" d="M 479.131,583.981 L 479.157,583.58 L 479.195,583.185 L 479.239,582.793 L 479.293,582.401 L 479.36,582.015 L 479.436,581.632 L 479.52,581.251 L 479.613,580.873 L 479.716,580.5 L 479.828,580.131 L 479.949,579.764 L 480.079,579.401 L 480.216,579.044 L 480.365,578.691 L 480.519,578.343 L 480.683,577.996 L 480.856,577.657 L 481.033,577.323 L 481.22,576.993 L 481.419,576.667 L 481.623,576.345 L 481.832,576.031 L 482.051,575.721 L 482.277,575.416 L 482.509,575.119 L 482.749,574.827 L 482.995,574.539 L 483.251,574.256 L 483.509,573.983 L 483.777,573.713 L 484.051,573.452 L 484.328,573.197 L 484.616,572.945 L 484.909,572.704 L 485.207,572.468 L 485.508,572.24 L 485.819,572.016 L 486.133,571.803 L 486.453,571.597 L 486.781,571.396 L 487.115,571.201 L 487.448,571.017 L 487.789,570.843 L 488.135,570.673 L 488.485,570.511 L 488.841,570.36 L 489.201,570.213 L 489.564,570.079 L 489.933,569.952 L 490.305,569.832 L 490.681,569.723 L 491.061,569.621 L 491.445,569.531 L 491.832,569.447 L 492.223,569.373 L 492.616,569.307 L 493.015,569.253 L 493.413,569.209 L 493.815,569.173 L 494.223,569.147 L 494.632,569.133 L 495.039,569.128 L 627.477,569.128 L 627.884,569.133 L 628.293,569.147 L 628.7,569.173 L 629.101,569.209 L 629.501,569.253 L 629.9,569.307 L 630.293,569.373 L 630.683,569.447 L 631.071,569.531 L 631.453,569.621 L 631.835,569.723 L 632.211,569.832 L 632.583,569.952 L 632.952,570.079 L 633.315,570.213 L 633.675,570.36 L 634.029,570.511 L 634.381,570.673 L 634.727,570.843 L 635.068,571.017 L 635.401,571.201 L 635.735,571.396 L 636.063,571.597 L 636.381,571.803 L 636.697,572.016 L 637.007,572.24 L 637.309,572.468 L 637.607,572.704 L 637.899,572.945 L 638.187,573.197 L 638.465,573.452 L 638.739,573.713 L 639.005,573.983 L 639.265,574.256 L 639.52,574.539 L 639.767,574.827 L 640.007,575.119 L 640.239,575.416 L 640.465,575.721 L 640.683,576.031 L 640.892,576.345 L 641.097,576.667 L 641.296,576.993 L 641.483,577.323 L 641.66,577.657 L 641.833,577.996 L 641.997,578.343 L 642.151,578.691 L 642.3,579.044 L 642.437,579.401 L 642.567,579.764 L 642.688,580.131 L 642.8,580.5 L 642.903,580.873 L 642.995,581.251 L 643.08,581.632 L 643.155,582.015 L 643.223,582.401 L 643.276,582.793 L 643.321,583.185 L 643.359,583.58 L 643.385,583.981 L 643.4,584.383 L 643.404,584.783 L 643.404,860.679 L 643.4,861.077 L 643.385,861.48 L 643.359,861.881 L 643.321,862.276 L 643.276,862.668 L 643.223,863.06 L 643.155,863.447 L 643.08,863.829 L 642.995,864.209 L 642.903,864.587 L 642.8,864.961 L 642.688,865.331 L 642.567,865.696 L 642.437,866.06 L 642.3,866.416 L 642.151,866.771 L 641.997,867.119 L 641.833,867.465 L 641.66,867.804 L 641.483,868.139 L 641.296,868.468 L 641.097,868.795 L 640.892,869.116 L 640.683,869.431 L 640.465,869.74 L 640.239,870.045 L 640.007,870.343 L 639.767,870.635 L 639.52,870.923 L 639.265,871.205 L 639.005,871.479 L 638.739,871.747 L 638.465,872.009 L 638.187,872.264 L 637.899,872.516 L 637.607,872.757 L 637.309,872.993 L 637.007,873.221 L 636.697,873.444 L 636.381,873.659 L 636.063,873.864 L 635.735,874.065 L 635.401,874.26 L 635.068,874.444 L 634.727,874.619 L 634.381,874.788 L 634.029,874.951 L 633.675,875.101 L 633.315,875.247 L 632.952,875.383 L 632.583,875.509 L 632.211,875.629 L 631.835,875.739 L 631.453,875.84 L 631.071,875.931 L 630.683,876.015 L 630.293,876.088 L 629.9,876.153 L 629.501,876.208 L 629.101,876.252 L 628.7,876.288 L 628.293,876.315 L 627.884,876.328 L 627.477,876.333 L 495.039,876.333 L 494.632,876.328 L 494.223,876.315 L 493.815,876.288 L 493.413,876.252 L 493.015,876.208 L 492.616,876.153 L 492.223,876.088 L 491.832,876.015 L 491.445,875.931 L 491.061,875.84 L 490.681,875.739 L 490.305,875.629 L 489.933,875.509 L 489.564,875.383 L 489.201,875.247 L 488.841,875.101 L 488.485,874.951 L 488.135,874.788 L 487.789,874.619 L 487.448,874.444 L 487.115,874.26 L 486.781,874.065 L 486.453,873.864 L 486.133,873.659 L 485.819,873.444 L 485.508,873.221 L 485.207,872.993 L 484.909,872.757 L 484.616,872.516 L 484.328,872.264 L 484.051,872.009 L 483.777,871.747 L 483.509,871.479 L 483.251,871.205 L 482.995,870.923 L 482.749,870.635 L 482.509,870.343 L 482.277,870.045 L 482.051,869.74 L 481.832,869.431 L 481.623,869.116 L 481.419,868.795 L 481.22,868.468 L 481.033,868.139 L 480.856,867.804 L 480.683,867.465 L 480.519,867.119 L 480.365,866.771 L 480.216,866.416 L 480.079,866.06 L 479.949,865.696 L 479.828,865.331 L 479.716,864.961 L 479.613,864.587 L 479.52,864.209 L 479.436,863.829 L 479.36,863.447 L 479.293,863.06 L 479.239,862.668 L 479.195,862.276 L 479.157,861.881 L 479.131,861.48 L 479.116,861.077 L 479.111,860.679 L 479.111,584.783 L 479.116,584.383 L 479.131,583.981 L 477.935,583.921 L 477.92,584.355 L 477.912,584.776 L 477.912,860.685 L 477.92,861.107 L 477.935,861.54 L 477.965,861.972 L 478.001,862.392 L 478.049,862.813 L 478.111,863.236 L 478.18,863.653 L 478.263,864.065 L 478.353,864.473 L 478.452,864.88 L 478.564,865.281 L 478.683,865.68 L 478.813,866.073 L 478.953,866.463 L 479.103,866.851 L 479.261,867.229 L 479.428,867.603 L 479.605,867.973 L 479.788,868.339 L 479.981,868.699 L 480.184,869.055 L 480.395,869.407 L 480.616,869.751 L 480.841,870.088 L 481.075,870.419 L 481.317,870.749 L 481.569,871.068 L 481.824,871.383 L 482.091,871.692 L 482.365,871.997 L 482.643,872.289 L 482.929,872.58 L 483.225,872.861 L 483.523,873.135 L 483.833,873.405 L 484.148,873.667 L 484.468,873.917 L 484.792,874.164 L 485.128,874.403 L 485.465,874.632 L 485.808,874.855 L 486.157,875.071 L 486.516,875.279 L 486.879,875.479 L 487.245,875.668 L 487.616,875.848 L 487.993,876.021 L 488.375,876.185 L 488.76,876.341 L 489.155,876.489 L 489.549,876.625 L 489.951,876.755 L 490.355,876.871 L 490.764,876.98 L 491.177,877.079 L 491.593,877.168 L 492.012,877.248 L 492.437,877.317 L 492.867,877.376 L 493.296,877.424 L 493.723,877.46 L 494.163,877.489 L 494.604,877.504 L 495.032,877.512 L 627.484,877.512 L 627.912,877.504 L 628.353,877.489 L 628.793,877.46 L 629.22,877.424 L 629.648,877.376 L 630.079,877.317 L 630.504,877.248 L 630.923,877.168 L 631.339,877.079 L 631.751,876.98 L 632.16,876.871 L 632.565,876.755 L 632.967,876.625 L 633.361,876.489 L 633.756,876.341 L 634.141,876.185 L 634.523,876.021 L 634.9,875.848 L 635.271,875.668 L 635.637,875.479 L 636,875.279 L 636.357,875.071 L 636.708,874.855 L 637.051,874.632 L 637.388,874.403 L 637.724,874.164 L 638.048,873.917 L 638.368,873.667 L 638.683,873.405 L 638.993,873.135 L 639.291,872.861 L 639.587,872.58 L 639.872,872.289 L 640.151,871.997 L 640.425,871.692 L 640.691,871.383 L 640.947,871.068 L 641.197,870.749 L 641.441,870.419 L 641.675,870.088 L 641.9,869.751 L 642.12,869.407 L 642.332,869.055 L 642.535,868.699 L 642.728,868.339 L 642.911,867.973 L 643.088,867.603 L 643.255,867.229 L 643.412,866.851 L 643.563,866.463 L 643.701,866.073 L 643.833,865.68 L 643.952,865.281 L 644.063,864.88 L 644.163,864.473 L 644.253,864.065 L 644.335,863.653 L 644.405,863.236 L 644.467,862.813 L 644.515,862.392 L 644.551,861.972 L 644.581,861.54 L 644.596,861.107 L 644.604,860.685 L 644.604,584.776 L 644.596,584.355 L 644.581,583.921 L 644.551,583.489 L 644.515,583.069 L 644.467,582.648 L 644.405,582.225 L 644.335,581.808 L 644.253,581.396 L 644.163,580.987 L 644.063,580.581 L 643.952,580.179 L 643.833,579.781 L 643.701,579.387 L 643.563,578.999 L 643.412,578.611 L 643.255,578.232 L 643.088,577.859 L 642.911,577.487 L 642.728,577.123 L 642.535,576.763 L 642.332,576.405 L 642.12,576.053 L 641.9,575.709 L 641.675,575.373 L 641.441,575.041 L 641.197,574.712 L 640.947,574.393 L 640.691,574.079 L 640.425,573.769 L 640.151,573.464 L 639.872,573.172 L 639.587,572.881 L 639.291,572.6 L 638.993,572.327 L 638.683,572.056 L 638.368,571.795 L 638.048,571.544 L 637.724,571.297 L 637.388,571.057 L 637.051,570.828 L 636.708,570.607 L 636.357,570.389 L 636,570.183 L 635.637,569.983 L 635.271,569.793 L 634.9,569.613 L 634.523,569.439 L 634.141,569.276 L 633.756,569.12 L 633.361,568.972 L 632.967,568.836 L 632.565,568.707 L 632.16,568.591 L 631.751,568.48 L 631.339,568.383 L 630.923,568.293 L 630.504,568.213 L 630.079,568.144 L 629.648,568.084 L 629.22,568.037 L 628.793,568.001 L 628.353,567.972 L 627.912,567.957 L 627.484,567.949 L 495.032,567.949 L 494.604,567.957 L 494.163,567.972 L 493.723,568.001 L 493.296,568.037 L 492.867,568.084 L 492.437,568.144 L 492.012,568.213 L 491.593,568.293 L 491.177,568.383 L 490.764,568.48 L 490.355,568.591 L 489.951,568.707 L 489.549,568.836 L 489.155,568.972 L 488.76,569.12 L 488.375,569.276 L 487.993,569.439 L 487.616,569.613 L 487.245,569.793 L 486.879,569.983 L 486.516,570.183 L 486.157,570.389 L 485.808,570.607 L 485.465,570.828 L 485.128,571.057 L 484.792,571.297 L 484.468,571.544 L 484.148,571.795 L 483.833,572.056 L 483.523,572.327 L 483.225,572.6 L 482.929,572.881 L 482.643,573.172 L 482.365,573.464 L 482.091,573.769 L 481.824,574.079 L 481.569,574.393 L 481.317,574.712 L 481.075,575.041 L 480.841,575.373 L 480.616,575.709 L 480.395,576.053 L 480.184,576.405 L 479.981,576.763 L 479.788,577.123 L 479.605,577.487 L 479.428,577.859 L 479.261,578.232 L 479.103,578.611 L 478.953,578.999 L 478.813,579.387 L 478.683,579.781 L 478.564,580.179 L 478.452,580.581 L 478.353,580.987 L 478.263,581.396 L 478.18,581.808 L 478.111,582.225 L 478.049,582.648 L 478.001,583.069 L 477.965,583.489 L 477.935,583.921 Z "/>
		</g>
		<path id="dp_path007" fill="white" fill-rule="evenodd" stroke="black" stroke-width="1.33333" d="M 488.067,623.868 L 634.449,623.868 L 634.449,824.837 L 488.067,824.837 Z "/>
		<path id="dp_path008" fill="white" fill-rule="evenodd" stroke="#48474a" stroke-width="1.33333" d="M 561.259,836.413 C 568.108,836.413 573.663,841.967 573.663,848.816 C 573.663,855.665 568.108,861.22 561.259,861.22 C 554.408,861.22 548.855,855.665 548.855,848.816 C 548.855,841.967 554.408,836.413 561.259,836.413 Z "/>
		<path id="dp_path009" fill="white" fill-rule="evenodd" stroke="black" stroke-width="2" d="M 536.008,592.767 C 537.723,592.767 539.112,594.157 539.112,595.871 C 539.112,597.585 537.723,598.975 536.008,598.975 C 534.295,598.975 532.904,597.585 532.904,595.871 C 532.904,594.157 534.295,592.767 536.008,592.767 Z "/>
		<path id="dp_path010" fill="white" fill-rule="evenodd" stroke="black" stroke-width="2" d="M 548.895,595.872 C 548.895,595.024 549.36,594.335 549.933,594.335 L 572.583,594.335 C 573.156,594.335 573.621,595.024 573.621,595.872 L 573.621,595.871 C 573.621,596.72 573.156,597.408 572.583,597.408 L 549.933,597.408 C 549.36,597.408 548.895,596.72 548.895,595.871 Z "/>
		<path id="dp_path010" fill="white" fill-rule="evenodd" stroke="black" stroke-width="2" d="M 555.007,585.149 C 555.007,584.439 555.241,583.861 555.532,583.861 L 566.987,583.861 C 567.276,583.861 567.511,584.439 567.511,585.149 L 567.511,585.148 C 567.511,585.859 567.276,586.435 566.987,586.435 L 555.532,586.435 C 555.241,586.435 555.007,585.859 555.007,585.148 Z "/>
		<path id="dp_path002" fill="white" fill-rule="evenodd" stroke="#4b4b4c" stroke-width="1.33333" d="M 555.979,845.376 C 555.979,844.647 556.569,844.056 557.299,844.056 L 565.217,844.056 C 565.947,844.056 566.537,844.647 566.537,845.376 L 566.537,853.293 C 566.537,854.023 565.947,854.613 565.217,854.613 L 557.299,854.613 C 556.569,854.613 555.979,854.023 555.979,853.293 Z "/>
	</g>
</svg>