<?xml version="1.0" encoding="UTF-8" standalone="no"?>
<!-- Created with Serif DrawPlus 11, 0, 0, 18 (Mar 20, 15:09:53) (http://www.serif.com) -->
<svg version="1.1" xmlns="http://www.w3.org/2000/svg" xmlns:xlink="http://www.w3.org/1999/xlink" xmlns:i="http://ns.adobe.com/AdobeIllustrator/10.0/" width="139" height="291">
	<g id="Layer_1" i:layer="yes">
		<g id="dp_group001">
			<path id="dp_path003" fill="white" fill-rule="evenodd" d="M 1.5,14.3333 C 1.5,6.41867 7.224,0.00133333 14.284,0.00133333 L 124.716,0.00133333 C 131.776,0.00133333 137.5,6.41867 137.5,14.3333 L 137.5,276.74 C 137.5,284.655 131.776,291.072 124.716,291.072 L 14.284,291.072 C 7.224,291.072 1.5,284.655 1.5,276.74 Z "/>
			<g id="dp_group004">
				<path id="dp_path005" fill="black" fill-rule="evenodd" d="M 3.01333,15.188 L 3.03067,14.8693 L 3.05867,14.5507 L 3.09067,14.2333 L 3.128,13.924 L 3.176,13.6173 L 3.228,13.308 L 3.288,13.0053 L 3.35467,12.704 L 3.42667,12.4053 L 3.50667,12.1107 L 3.592,11.82 L 3.684,11.528 L 3.78,11.2453 L 3.88533,10.964 L 3.99467,10.6827 L 4.11067,10.408 L 4.232,10.136 L 4.36,9.87067 L 4.49333,9.60533 L 4.63067,9.34533 L 4.77467,9.092 L 4.92533,8.83867 L 5.08,8.592 L 5.24,8.348 L 5.404,8.112 L 5.57733,7.87333 L 5.75067,7.64533 L 5.928,7.42267 L 6.116,7.20133 L 6.304,6.98667 L 6.49733,6.77867 L 6.69733,6.57067 L 6.89733,6.37333 L 7.104,6.18133 L 7.31867,5.98933 L 7.532,5.808 L 7.752,5.63067 L 7.97467,5.45867 L 8.20267,5.292 L 8.432,5.132 L 8.66667,4.98 L 8.904,4.832 L 9.144,4.69067 L 9.38933,4.556 L 9.63733,4.428 L 9.89067,4.30667 L 10.144,4.18933 L 10.4,4.08267 L 10.6627,3.98133 L 10.9253,3.88667 L 11.1907,3.79867 L 11.46,3.71867 L 11.732,3.644 L 12.0053,3.57733 L 12.284,3.52 L 12.5613,3.46667 L 12.84,3.42533 L 13.1267,3.39067 L 13.4147,3.35867 L 13.7013,3.34 L 13.9893,3.32667 L 14.2893,3.32533 L 124.7,3.32533 L 125,3.32667 L 125.288,3.34 L 125.575,3.35867 L 125.863,3.39067 L 126.149,3.42533 L 126.428,3.46667 L 126.705,3.52 L 126.984,3.57733 L 127.257,3.644 L 127.529,3.71867 L 127.799,3.79867 L 128.064,3.88667 L 128.327,3.98133 L 128.589,4.08267 L 128.845,4.18933 L 129.099,4.30667 L 129.352,4.428 L 129.6,4.556 L 129.845,4.69067 L 130.085,4.832 L 130.323,4.98 L 130.557,5.132 L 130.787,5.292 L 131.015,5.45867 L 131.237,5.63067 L 131.457,5.808 L 131.671,5.98933 L 131.885,6.18133 L 132.092,6.37333 L 132.292,6.57067 L 132.492,6.77867 L 132.685,6.98667 L 132.873,7.20133 L 133.061,7.42267 L 133.239,7.64533 L 133.412,7.87333 L 133.585,8.112 L 133.749,8.348 L 133.909,8.592 L 134.064,8.83867 L 134.215,9.092 L 134.359,9.34533 L 134.496,9.60533 L 134.629,9.87067 L 134.757,10.136 L 134.879,10.408 L 134.995,10.6827 L 135.104,10.964 L 135.209,11.2453 L 135.305,11.528 L 135.397,11.82 L 135.483,12.1107 L 135.563,12.4053 L 135.635,12.704 L 135.701,13.0053 L 135.761,13.308 L 135.813,13.6173 L 135.861,13.924 L 135.899,14.2333 L 135.931,14.5507 L 135.959,14.8693 L 135.976,15.188 L 135.988,15.5067 L 135.989,15.8387 L 135.989,275.256 L 135.988,275.589 L 135.976,275.908 L 135.959,276.225 L 135.931,276.545 L 135.899,276.863 L 135.861,277.172 L 135.813,277.479 L 135.761,277.788 L 135.701,278.091 L 135.635,278.392 L 135.563,278.691 L 135.483,278.985 L 135.397,279.276 L 135.305,279.568 L 135.209,279.851 L 135.104,280.132 L 134.995,280.412 L 134.879,280.688 L 134.757,280.96 L 134.629,281.225 L 134.496,281.489 L 134.359,281.751 L 134.215,282.004 L 134.064,282.257 L 133.909,282.504 L 133.749,282.748 L 133.585,282.984 L 133.412,283.223 L 133.239,283.451 L 133.061,283.673 L 132.873,283.895 L 132.685,284.109 L 132.492,284.317 L 132.292,284.525 L 132.092,284.723 L 131.885,284.915 L 131.671,285.107 L 131.457,285.288 L 131.237,285.465 L 131.015,285.637 L 130.787,285.804 L 130.557,285.964 L 130.323,286.116 L 130.085,286.264 L 129.845,286.405 L 129.6,286.54 L 129.352,286.668 L 129.099,286.789 L 128.845,286.907 L 128.589,287.012 L 128.327,287.115 L 128.064,287.209 L 127.799,287.297 L 127.529,287.377 L 127.257,287.452 L 126.984,287.519 L 126.705,287.576 L 126.428,287.629 L 126.149,287.671 L 125.863,287.705 L 125.575,287.737 L 125.288,287.756 L 125,287.769 L 124.7,287.771 L 14.2893,287.771 L 13.9893,287.769 L 13.7013,287.756 L 13.4147,287.737 L 13.1267,287.705 L 12.84,287.671 L 12.5613,287.629 L 12.284,287.576 L 12.0053,287.519 L 11.732,287.452 L 11.46,287.377 L 11.1907,287.297 L 10.9253,287.209 L 10.6627,287.115 L 10.4,287.012 L 10.144,286.907 L 9.89067,286.789 L 9.63733,286.668 L 9.38933,286.54 L 9.144,286.405 L 8.904,286.264 L 8.66667,286.116 L 8.432,285.964 L 8.20267,285.804 L 7.97467,285.637 L 7.752,285.465 L 7.532,285.288 L 7.31867,285.107 L 7.104,284.915 L 6.89733,284.723 L 6.69733,284.525 L 6.49733,284.317 L 6.304,284.109 L 6.116,283.895 L 5.928,283.673 L 5.75067,283.451 L 5.57733,283.223 L 5.404,282.984 L 5.24,282.748 L 5.08,282.504 L 4.92533,282.257 L 4.77467,282.004 L 4.63067,281.751 L 4.49333,281.489 L 4.36,281.225 L 4.232,280.96 L 4.11067,280.688 L 3.99467,280.412 L 3.88533,280.132 L 3.78,279.851 L 3.684,279.568 L 3.592,279.276 L 3.50667,278.985 L 3.42667,278.691 L 3.35467,278.392 L 3.288,278.091 L 3.228,277.788 L 3.176,277.479 L 3.128,277.172 L 3.09067,276.863 L 3.05867,276.545 L 3.03067,276.225 L 3.01333,275.908 L 3.00133,275.589 L 3,275.256 L 3,15.8387 L 3.00133,15.5067 L 3.01333,15.188 L 2.016,15.132 L 2.004,15.48 L 2,15.836 L 2,275.26 L 2.004,275.616 L 2.016,275.964 L 2.036,276.312 L 2.064,276.657 L 2.09867,276.999 L 2.14133,277.337 L 2.192,277.675 L 2.24933,278.007 L 2.31467,278.339 L 2.38667,278.668 L 2.46667,278.992 L 2.552,279.313 L 2.64533,279.631 L 2.74533,279.945 L 2.852,280.256 L 2.96533,280.564 L 3.08533,280.868 L 3.212,281.167 L 3.344,281.461 L 3.48267,281.755 L 3.62667,282.04 L 3.77733,282.324 L 3.93467,282.601 L 4.09867,282.877 L 4.26667,283.145 L 4.44,283.409 L 4.62,283.669 L 4.80667,283.925 L 4.996,284.175 L 5.192,284.417 L 5.39333,284.657 L 5.59733,284.892 L 5.80933,285.119 L 6.02533,285.341 L 6.244,285.559 L 6.46933,285.768 L 6.7,285.975 L 6.93467,286.175 L 7.17333,286.367 L 7.41467,286.553 L 7.664,286.735 L 7.91467,286.909 L 8.17067,287.076 L 8.428,287.236 L 8.69067,287.389 L 8.95733,287.536 L 9.22667,287.676 L 9.50133,287.809 L 9.77867,287.935 L 10.0587,288.053 L 10.3427,288.164 L 10.6293,288.267 L 10.9187,288.361 L 11.212,288.451 L 11.508,288.531 L 11.808,288.603 L 12.108,288.667 L 12.412,288.723 L 12.7173,288.769 L 13.0253,288.808 L 13.3373,288.839 L 13.6507,288.861 L 13.9653,288.875 L 14.2867,288.879 L 124.703,288.879 L 125.024,288.875 L 125.339,288.861 L 125.652,288.839 L 125.964,288.808 L 126.272,288.769 L 126.577,288.723 L 126.881,288.667 L 127.181,288.603 L 127.481,288.531 L 127.777,288.451 L 128.071,288.361 L 128.36,288.267 L 128.647,288.164 L 128.931,288.053 L 129.211,287.935 L 129.488,287.809 L 129.763,287.676 L 130.032,287.536 L 130.299,287.389 L 130.561,287.236 L 130.819,287.076 L 131.075,286.909 L 131.325,286.735 L 131.575,286.553 L 131.816,286.367 L 132.055,286.175 L 132.289,285.975 L 132.52,285.768 L 132.745,285.559 L 132.964,285.341 L 133.18,285.119 L 133.392,284.892 L 133.596,284.657 L 133.797,284.417 L 133.993,284.175 L 134.183,283.925 L 134.369,283.669 L 134.549,283.409 L 134.723,283.145 L 134.891,282.877 L 135.055,282.601 L 135.212,282.324 L 135.363,282.04 L 135.507,281.755 L 135.645,281.461 L 135.777,281.167 L 135.904,280.868 L 136.024,280.564 L 136.137,280.256 L 136.244,279.945 L 136.344,279.631 L 136.437,279.313 L 136.523,278.992 L 136.603,278.668 L 136.675,278.339 L 136.74,278.007 L 136.797,277.675 L 136.848,277.337 L 136.891,276.999 L 136.925,276.657 L 136.953,276.312 L 136.973,275.964 L 136.985,275.616 L 136.989,275.26 L 136.989,15.836 L 136.985,15.48 L 136.973,15.132 L 136.953,14.784 L 136.925,14.4387 L 136.891,14.0973 L 136.848,13.7587 L 136.797,13.4213 L 136.74,13.0893 L 136.675,12.756 L 136.603,12.428 L 136.523,12.104 L 136.437,11.7827 L 136.344,11.4653 L 136.244,11.1507 L 136.137,10.84 L 136.024,10.532 L 135.904,10.228 L 135.777,9.92933 L 135.645,9.63333 L 135.507,9.34133 L 135.363,9.056 L 135.212,8.772 L 135.055,8.49467 L 134.891,8.21867 L 134.723,7.95067 L 134.549,7.68667 L 134.369,7.42667 L 134.183,7.17067 L 133.993,6.92 L 133.797,6.67867 L 133.596,6.43867 L 133.392,6.204 L 133.18,5.97733 L 132.964,5.75467 L 132.745,5.53733 L 132.52,5.328 L 132.289,5.12 L 132.055,4.92133 L 131.816,4.72933 L 131.575,4.54267 L 131.325,4.36133 L 131.075,4.18667 L 130.819,4.02 L 130.561,3.86 L 130.299,3.70667 L 130.032,3.56 L 129.763,3.42 L 129.488,3.28667 L 129.211,3.16133 L 128.931,3.04267 L 128.647,2.932 L 128.36,2.828 L 128.071,2.73333 L 127.777,2.64533 L 127.481,2.56533 L 127.181,2.49333 L 126.881,2.42933 L 126.577,2.37333 L 126.272,2.32667 L 125.964,2.288 L 125.652,2.256 L 125.339,2.23467 L 125.024,2.22133 L 124.703,2.21733 L 14.2867,2.21733 L 13.9653,2.22133 L 13.6507,2.23467 L 13.3373,2.256 L 13.0253,2.288 L 12.7173,2.32667 L 12.412,2.37333 L 12.108,2.42933 L 11.808,2.49333 L 11.508,2.56533 L 11.212,2.64533 L 10.9187,2.73333 L 10.6293,2.828 L 10.3427,2.932 L 10.0587,3.04267 L 9.77867,3.16133 L 9.50133,3.28667 L 9.22667,3.42 L 8.95733,3.56 L 8.69067,3.70667 L 8.428,3.86 L 8.17067,4.02 L 7.91467,4.18667 L 7.664,4.36133 L 7.41467,4.54267 L 7.17333,4.72933 L 6.93467,4.92133 L 6.7,5.12 L 6.46933,5.328 L 6.244,5.53733 L 6.02533,5.75467 L 5.80933,5.97733 L 5.59733,6.204 L 5.39333,6.43867 L 5.192,6.67867 L 4.996,6.92 L 4.80667,7.17067 L 4.62,7.42667 L 4.44,7.68667 L 4.26667,7.95067 L 4.09867,8.21867 L 3.93467,8.49467 L 3.77733,8.772 L 3.62667,9.056 L 3.48267,9.34133 L 3.344,9.63333 L 3.212,9.92933 L 3.08533,10.228 L 2.96533,10.532 L 2.852,10.84 L 2.74533,11.1507 L 2.64533,11.4653 L 2.552,11.7827 L 2.46667,12.104 L 2.38667,12.428 L 2.31467,12.756 L 2.24933,13.0893 L 2.192,13.4213 L 2.14133,13.7587 L 2.09867,14.0973 L 2.064,14.4387 L 2.036,14.784 L 2.016,15.132 Z "/>
				<path id="dp_path006" fill="black" fill-rule="evenodd" d="M 1.016,15.0747 L 1.03867,14.6987 L 1.06933,14.328 L 1.10667,13.9587 L 1.152,13.5907 L 1.208,13.2267 L 1.27067,12.8653 L 1.34133,12.508 L 1.41867,12.1533 L 1.504,11.8013 L 1.59733,11.4547 L 1.69867,11.1107 L 1.80667,10.7693 L 1.92133,10.4333 L 2.04533,10.1013 L 2.17333,9.77333 L 2.31067,9.448 L 2.45467,9.128 L 2.60267,8.81333 L 2.75867,8.50533 L 2.924,8.19733 L 3.09467,7.89467 L 3.26933,7.59867 L 3.45067,7.308 L 3.64,7.02133 L 3.83333,6.74133 L 4.03333,6.46667 L 4.23867,6.196 L 4.452,5.93067 L 4.668,5.67333 L 4.89067,5.42 L 5.11867,5.17333 L 5.35067,4.93467 L 5.59067,4.69867 L 5.83467,4.47067 L 6.08267,4.24933 L 6.33467,4.03467 L 6.59333,3.824 L 6.856,3.624 L 7.12267,3.43067 L 7.396,3.24133 L 7.67333,3.05733 L 7.952,2.88533 L 8.236,2.72133 L 8.524,2.56133 L 8.816,2.40933 L 9.112,2.26667 L 9.412,2.12933 L 9.71467,2.00267 L 10.0227,1.88267 L 10.3333,1.77067 L 10.6467,1.66667 L 10.964,1.572 L 11.284,1.48667 L 11.6067,1.408 L 11.932,1.33867 L 12.26,1.27733 L 12.592,1.22667 L 12.9253,1.18533 L 13.26,1.15067 L 13.6,1.12667 L 13.9413,1.11333 L 14.28,1.108 L 124.709,1.108 L 125.048,1.11333 L 125.389,1.12667 L 125.729,1.15067 L 126.064,1.18533 L 126.397,1.22667 L 126.729,1.27733 L 127.057,1.33867 L 127.383,1.408 L 127.705,1.48667 L 128.025,1.572 L 128.343,1.66667 L 128.656,1.77067 L 128.967,1.88267 L 129.275,2.00267 L 129.577,2.12933 L 129.877,2.26667 L 130.173,2.40933 L 130.465,2.56133 L 130.753,2.72133 L 131.037,2.88533 L 131.316,3.05733 L 131.593,3.24133 L 131.867,3.43067 L 132.133,3.624 L 132.396,3.824 L 132.655,4.03467 L 132.907,4.24933 L 133.155,4.47067 L 133.399,4.69867 L 133.639,4.93467 L 133.871,5.17333 L 134.099,5.42 L 134.321,5.67333 L 134.537,5.93067 L 134.751,6.196 L 134.956,6.46667 L 135.156,6.74133 L 135.349,7.02133 L 135.539,7.308 L 135.72,7.59867 L 135.895,7.89467 L 136.065,8.19733 L 136.231,8.50533 L 136.387,8.81333 L 136.535,9.128 L 136.679,9.448 L 136.816,9.77333 L 136.944,10.1013 L 137.068,10.4333 L 137.183,10.7693 L 137.291,11.1107 L 137.392,11.4547 L 137.485,11.8013 L 137.571,12.1533 L 137.648,12.508 L 137.719,12.8653 L 137.781,13.2267 L 137.837,13.5907 L 137.883,13.9587 L 137.92,14.328 L 137.951,14.6987 L 137.973,15.0747 L 137.985,15.4533 L 137.989,15.8293 L 137.989,275.267 L 137.985,275.643 L 137.973,276.02 L 137.951,276.397 L 137.92,276.768 L 137.883,277.137 L 137.837,277.505 L 137.781,277.869 L 137.719,278.229 L 137.648,278.588 L 137.571,278.943 L 137.485,279.293 L 137.392,279.641 L 137.291,279.985 L 137.183,280.327 L 137.068,280.663 L 136.944,280.995 L 136.816,281.323 L 136.679,281.648 L 136.535,281.968 L 136.387,282.283 L 136.231,282.591 L 136.065,282.899 L 135.895,283.201 L 135.72,283.497 L 135.539,283.788 L 135.349,284.075 L 135.156,284.355 L 134.956,284.629 L 134.751,284.9 L 134.537,285.165 L 134.321,285.423 L 134.099,285.675 L 133.871,285.921 L 133.639,286.161 L 133.399,286.397 L 133.155,286.625 L 132.907,286.847 L 132.655,287.061 L 132.396,287.271 L 132.133,287.472 L 131.867,287.665 L 131.593,287.855 L 131.316,288.039 L 131.037,288.211 L 130.753,288.375 L 130.465,288.535 L 130.173,288.687 L 129.877,288.829 L 129.577,288.967 L 129.275,289.093 L 128.967,289.213 L 128.656,289.325 L 128.343,289.429 L 128.025,289.524 L 127.705,289.609 L 127.383,289.688 L 127.057,289.757 L 126.729,289.819 L 126.397,289.869 L 126.064,289.911 L 125.729,289.944 L 125.389,289.969 L 125.048,289.983 L 124.709,289.988 L 14.28,289.988 L 13.9413,289.983 L 13.6,289.969 L 13.26,289.944 L 12.9253,289.911 L 12.592,289.869 L 12.26,289.819 L 11.932,289.757 L 11.6067,289.688 L 11.284,289.609 L 10.964,289.524 L 10.6467,289.429 L 10.3333,289.325 L 10.0227,289.213 L 9.71467,289.093 L 9.412,288.967 L 9.112,288.829 L 8.816,288.687 L 8.524,288.535 L 8.236,288.375 L 7.952,288.211 L 7.67333,288.039 L 7.396,287.855 L 7.12267,287.665 L 6.856,287.472 L 6.59333,287.271 L 6.33467,287.061 L 6.08267,286.847 L 5.83467,286.625 L 5.59067,286.397 L 5.35067,286.161 L 5.11867,285.921 L 4.89067,285.675 L 4.668,285.423 L 4.452,285.165 L 4.23867,284.9 L 4.03333,284.629 L 3.83333,284.355 L 3.64,284.075 L 3.45067,283.788 L 3.26933,283.497 L 3.09467,283.201 L 2.924,282.899 L 2.75867,282.591 L 2.60267,282.283 L 2.45467,281.968 L 2.31067,281.648 L 2.17333,281.323 L 2.04533,280.995 L 1.92133,280.663 L 1.80667,280.327 L 1.69867,279.985 L 1.59733,279.641 L 1.504,279.293 L 1.41867,278.943 L 1.34133,278.588 L 1.27067,278.229 L 1.208,277.869 L 1.152,277.505 L 1.10667,277.137 L 1.06933,276.768 L 1.03867,276.397 L 1.016,276.02 L 1.004,275.643 L 1,275.267 L 1,15.8293 L 1.004,15.4533 L 1.016,15.0747 L 0.0186667,15.0187 L 0.00666667,15.4267 L 0,15.8227 L 0,275.273 L 0.00666667,275.669 L 0.0186667,276.077 L 0.044,276.483 L 0.0746667,276.877 L 0.114667,277.273 L 0.165333,277.671 L 0.224,278.064 L 0.292,278.452 L 0.368,278.836 L 0.450667,279.217 L 0.544,279.596 L 0.642667,279.969 L 0.752,280.34 L 0.868,280.705 L 0.993333,281.071 L 1.12533,281.427 L 1.264,281.779 L 1.412,282.127 L 1.564,282.469 L 1.72533,282.808 L 1.89467,283.144 L 2.07067,283.475 L 2.25467,283.799 L 2.44267,284.115 L 2.63733,284.427 L 2.84,284.737 L 3.04933,285.037 L 3.26267,285.332 L 3.484,285.624 L 3.71333,285.911 L 3.94533,286.185 L 4.184,286.459 L 4.43067,286.723 L 4.67867,286.98 L 4.93733,287.235 L 5.2,287.48 L 5.46667,287.716 L 5.73733,287.948 L 6.01733,288.173 L 6.29867,288.388 L 6.584,288.597 L 6.876,288.801 L 7.17467,288.996 L 7.47733,289.184 L 7.78267,289.363 L 8.092,289.531 L 8.40667,289.695 L 8.72267,289.848 L 9.044,289.995 L 9.37333,290.133 L 9.70267,290.263 L 10.0373,290.384 L 10.3747,290.493 L 10.716,290.596 L 11.06,290.688 L 11.4067,290.772 L 11.756,290.848 L 12.1107,290.912 L 12.4693,290.969 L 12.8267,291.013 L 13.1827,291.047 L 13.5493,291.075 L 13.9173,291.088 L 14.2747,291.096 L 124.715,291.096 L 125.072,291.088 L 125.44,291.075 L 125.807,291.047 L 126.163,291.013 L 126.52,290.969 L 126.879,290.912 L 127.233,290.848 L 127.583,290.772 L 127.929,290.688 L 128.273,290.596 L 128.615,290.493 L 128.952,290.384 L 129.287,290.263 L 129.616,290.133 L 129.945,289.995 L 130.267,289.848 L 130.583,289.695 L 130.897,289.531 L 131.207,289.363 L 131.512,289.184 L 131.815,288.996 L 132.113,288.801 L 132.405,288.597 L 132.691,288.388 L 132.972,288.173 L 133.252,287.948 L 133.523,287.716 L 133.789,287.48 L 134.052,287.235 L 134.311,286.98 L 134.559,286.723 L 134.805,286.459 L 135.044,286.185 L 135.276,285.911 L 135.505,285.624 L 135.727,285.332 L 135.94,285.037 L 136.149,284.737 L 136.352,284.427 L 136.547,284.115 L 136.735,283.799 L 136.919,283.475 L 137.095,283.144 L 137.264,282.808 L 137.425,282.469 L 137.577,282.127 L 137.725,281.779 L 137.864,281.427 L 137.996,281.071 L 138.121,280.705 L 138.237,280.34 L 138.347,279.969 L 138.445,279.596 L 138.539,279.217 L 138.621,278.836 L 138.697,278.452 L 138.765,278.064 L 138.824,277.671 L 138.875,277.273 L 138.915,276.877 L 138.945,276.483 L 138.971,276.077 L 138.983,275.669 L 138.989,275.273 L 138.989,15.8227 L 138.983,15.4267 L 138.971,15.0187 L 138.945,14.6133 L 138.915,14.2187 L 138.875,13.8227 L 138.824,13.424 L 138.765,13.032 L 138.697,12.644 L 138.621,12.26 L 138.539,11.8787 L 138.445,11.5 L 138.347,11.1267 L 138.237,10.756 L 138.121,10.3907 L 137.996,10.0253 L 137.864,9.66933 L 137.725,9.31733 L 137.577,8.96933 L 137.425,8.62667 L 137.264,8.288 L 137.095,7.952 L 136.919,7.62133 L 136.735,7.29733 L 136.547,6.98133 L 136.352,6.66933 L 136.149,6.35867 L 135.94,6.05867 L 135.727,5.764 L 135.505,5.472 L 135.276,5.18533 L 135.044,4.91067 L 134.805,4.63733 L 134.559,4.37333 L 134.311,4.116 L 134.052,3.86133 L 133.789,3.616 L 133.523,3.38 L 133.252,3.148 L 132.972,2.92267 L 132.691,2.708 L 132.405,2.49867 L 132.113,2.29467 L 131.815,2.1 L 131.512,1.912 L 131.207,1.73333 L 130.897,1.56533 L 130.583,1.40133 L 130.267,1.24667 L 129.945,1.10133 L 129.616,0.962667 L 129.287,0.833333 L 128.952,0.712 L 128.615,0.602667 L 128.273,0.5 L 127.929,0.408 L 127.583,0.324 L 127.233,0.248 L 126.879,0.182667 L 126.52,0.126667 L 126.163,0.0826667 L 125.807,0.0493333 L 125.44,0.0213333 L 125.072,0.008 L 124.715,0 L 14.2747,0 L 13.9173,0.008 L 13.5493,0.0213333 L 13.1827,0.0493333 L 12.8267,0.0826667 L 12.4693,0.126667 L 12.1107,0.182667 L 11.756,0.248 L 11.4067,0.324 L 11.06,0.408 L 10.716,0.5 L 10.3747,0.602667 L 10.0373,0.712 L 9.70267,0.833333 L 9.37333,0.962667 L 9.044,1.10133 L 8.72267,1.24667 L 8.40667,1.40133 L 8.092,1.56533 L 7.78267,1.73333 L 7.47733,1.912 L 7.17467,2.1 L 6.876,2.29467 L 6.584,2.49867 L 6.29867,2.708 L 6.01733,2.92267 L 5.73733,3.148 L 5.46667,3.38 L 5.2,3.616 L 4.93733,3.86133 L 4.67867,4.116 L 4.43067,4.37333 L 4.184,4.63733 L 3.94533,4.91067 L 3.71333,5.18533 L 3.484,5.472 L 3.26267,5.764 L 3.04933,6.05867 L 2.84,6.35867 L 2.63733,6.66933 L 2.44267,6.98133 L 2.25467,7.29733 L 2.07067,7.62133 L 1.89467,7.952 L 1.72533,8.288 L 1.564,8.62667 L 1.412,8.96933 L 1.264,9.31733 L 1.12533,9.66933 L 0.993333,10.0253 L 0.868,10.3907 L 0.752,10.756 L 0.642667,11.1267 L 0.544,11.5 L 0.450667,11.8787 L 0.368,12.26 L 0.292,12.644 L 0.224,13.032 L 0.165333,13.424 L 0.114667,13.8227 L 0.0746667,14.2187 L 0.044,14.6133 L 0.0186667,15.0187 Z "/>
			</g>
			<path id="dp_path007" fill="white" fill-rule="evenodd" stroke="black" stroke-width="2" d="M 7.68133,28.452 L 131.664,28.452 L 131.664,260.088 L 7.68133,260.088 Z "/>
			<g id="dp_group002">
				<path id="dp_path008" fill="white" fill-rule="evenodd" stroke="#4c4c4c" stroke-width="1.33333" d="M 69.5,264.664 C 74.2787,264.664 78.1533,268.539 78.1533,273.317 C 78.1533,278.096 74.2787,281.971 69.5,281.971 C 64.7213,281.971 60.8467,278.096 60.8467,273.317 C 60.8467,268.539 64.7213,264.664 69.5,264.664 Z "/>
				<path id="dp_path003" fill="white" fill-rule="evenodd" stroke="#202020" stroke-width="1.33333" d="M 65.18,269.679 C 65.3893,269.679 65.56,269.508 65.56,269.299 L 73.4387,269.299 C 73.4387,269.508 73.6093,269.679 73.8187,269.679 L 73.8187,277.557 C 73.6093,277.557 73.4387,277.728 73.4387,277.937 L 65.56,277.937 C 65.56,277.728 65.3893,277.557 65.18,277.557 Z "/>
			</g>
			<path id="dp_path009" fill="white" fill-rule="evenodd" stroke="black" stroke-width="2" d="M 69.4907,8.89467 C 70.5147,8.89467 71.3453,9.72533 71.3453,10.7493 C 71.3453,11.7733 70.5147,12.604 69.4907,12.604 C 68.4667,12.604 67.636,11.7733 67.636,10.7493 C 67.636,9.72533 68.4667,8.89467 69.4907,8.89467 Z "/>
			<path id="dp_path010" fill="white" fill-rule="evenodd" stroke="black" stroke-width="2" d="M 57.5267,19.852 C 57.5267,19.2787 57.992,18.8133 58.5653,18.8133 L 81.2147,18.8133 C 81.788,18.8133 82.2533,19.2787 82.2533,19.852 L 82.2533,19.8507 C 82.2533,20.424 81.788,20.8893 81.2147,20.8893 L 58.5653,20.8893 C 57.992,20.8893 57.5267,20.424 57.5267,19.8507 Z "/>
		</g>
	</g>
</svg>