<?xml version="1.0" encoding="UTF-8" standalone="no"?>
<!-- Created with Serif DrawPlus 11, 0, 0, 18 (Mar 20, 15:09:53) (http://www.serif.com) -->
<svg version="1.1" xmlns="http://www.w3.org/2000/svg" xmlns:xlink="http://www.w3.org/1999/xlink" xmlns:i="http://ns.adobe.com/AdobeIllustrator/10.0/" width="139.02" height="262.655">
	<g id="dp_group001" transform="matrix(1,0,0,1,-111.692,-376.388)">
		<g id="dp_group002">
			<path id="dp_path003" fill="white" fill-rule="evenodd" d="M 113.201,390.681 C 113.201,383.621 118.925,377.897 125.985,377.897 L 236.417,377.897 C 243.477,377.897 249.201,383.621 249.201,390.681 L 249.201,624.748 C 249.201,631.808 243.477,637.532 236.417,637.532 L 125.985,637.532 C 118.925,637.532 113.201,631.808 113.201,624.748 Z "/>
			<g id="dp_group004">
				<path id="dp_path005" fill="black" d="M 114.715,390.1 L 114.732,389.813 L 114.76,389.525 L 114.792,389.239 L 114.829,388.96 L 114.877,388.683 L 114.929,388.404 L 114.989,388.131 L 115.056,387.859 L 115.128,387.589 L 115.208,387.324 L 115.293,387.061 L 115.385,386.799 L 115.481,386.543 L 115.587,386.289 L 115.696,386.036 L 115.812,385.788 L 115.933,385.543 L 116.061,385.303 L 116.195,385.064 L 116.332,384.829 L 116.476,384.6 L 116.627,384.372 L 116.781,384.149 L 116.941,383.929 L 117.105,383.716 L 117.279,383.501 L 117.452,383.295 L 117.629,383.095 L 117.817,382.895 L 118.005,382.701 L 118.199,382.513 L 118.399,382.325 L 118.599,382.148 L 118.805,381.975 L 119.02,381.801 L 119.233,381.637 L 119.453,381.477 L 119.676,381.323 L 119.904,381.172 L 120.133,381.028 L 120.368,380.891 L 120.607,380.757 L 120.847,380.629 L 121.092,380.508 L 121.34,380.392 L 121.593,380.283 L 121.847,380.177 L 122.103,380.081 L 122.365,379.989 L 122.628,379.904 L 122.893,379.824 L 123.163,379.752 L 123.435,379.685 L 123.708,379.625 L 123.987,379.573 L 124.264,379.525 L 124.543,379.488 L 124.829,379.456 L 125.117,379.428 L 125.404,379.411 L 125.692,379.399 L 125.992,379.397 L 236.411,379.397 L 236.711,379.399 L 236.999,379.411 L 237.285,379.428 L 237.573,379.456 L 237.86,379.488 L 238.139,379.525 L 238.416,379.573 L 238.695,379.625 L 238.968,379.685 L 239.24,379.752 L 239.509,379.824 L 239.775,379.904 L 240.037,379.989 L 240.3,380.081 L 240.556,380.177 L 240.809,380.283 L 241.063,380.392 L 241.311,380.508 L 241.556,380.629 L 241.796,380.757 L 242.035,380.891 L 242.269,381.028 L 242.499,381.172 L 242.727,381.323 L 242.949,381.477 L 243.169,381.637 L 243.383,381.801 L 243.597,381.975 L 243.804,382.148 L 244.004,382.325 L 244.204,382.513 L 244.397,382.701 L 244.585,382.895 L 244.773,383.095 L 244.951,383.295 L 245.124,383.501 L 245.297,383.716 L 245.461,383.929 L 245.621,384.149 L 245.776,384.372 L 245.927,384.6 L 246.071,384.829 L 246.208,385.064 L 246.341,385.303 L 246.469,385.543 L 246.591,385.788 L 246.707,386.036 L 246.816,386.289 L 246.921,386.543 L 247.017,386.799 L 247.109,387.061 L 247.195,387.324 L 247.275,387.589 L 247.347,387.859 L 247.413,388.131 L 247.473,388.404 L 247.525,388.683 L 247.573,388.96 L 247.611,389.239 L 247.643,389.525 L 247.671,389.813 L 247.688,390.1 L 247.7,390.388 L 247.701,390.688 L 247.701,624.741 L 247.7,625.041 L 247.688,625.329 L 247.671,625.616 L 247.643,625.904 L 247.611,626.191 L 247.573,626.469 L 247.525,626.747 L 247.473,627.025 L 247.413,627.299 L 247.347,627.571 L 247.275,627.84 L 247.195,628.105 L 247.109,628.368 L 247.017,628.631 L 246.921,628.887 L 246.816,629.14 L 246.707,629.393 L 246.591,629.641 L 246.469,629.887 L 246.341,630.127 L 246.208,630.365 L 246.071,630.6 L 245.927,630.829 L 245.776,631.057 L 245.621,631.28 L 245.461,631.5 L 245.297,631.713 L 245.124,631.928 L 244.951,632.135 L 244.773,632.335 L 244.585,632.535 L 244.397,632.728 L 244.204,632.916 L 244.004,633.104 L 243.804,633.281 L 243.597,633.455 L 243.383,633.628 L 243.169,633.792 L 242.949,633.952 L 242.727,634.107 L 242.499,634.257 L 242.269,634.401 L 242.035,634.539 L 241.796,634.672 L 241.556,634.8 L 241.311,634.921 L 241.063,635.037 L 240.809,635.147 L 240.556,635.252 L 240.3,635.348 L 240.037,635.44 L 239.775,635.525 L 239.509,635.605 L 239.24,635.677 L 238.968,635.744 L 238.695,635.804 L 238.416,635.856 L 238.139,635.904 L 237.86,635.941 L 237.573,635.973 L 237.285,636.001 L 236.999,636.019 L 236.711,636.031 L 236.411,636.032 L 125.992,636.032 L 125.692,636.031 L 125.404,636.019 L 125.117,636.001 L 124.829,635.973 L 124.543,635.941 L 124.264,635.904 L 123.987,635.856 L 123.708,635.804 L 123.435,635.744 L 123.163,635.677 L 122.893,635.605 L 122.628,635.525 L 122.365,635.44 L 122.103,635.348 L 121.847,635.252 L 121.593,635.147 L 121.34,635.037 L 121.092,634.921 L 120.847,634.8 L 120.607,634.672 L 120.368,634.539 L 120.133,634.401 L 119.904,634.257 L 119.676,634.107 L 119.453,633.952 L 119.233,633.792 L 119.02,633.628 L 118.805,633.455 L 118.599,633.281 L 118.399,633.104 L 118.199,632.916 L 118.005,632.728 L 117.817,632.535 L 117.629,632.335 L 117.452,632.135 L 117.279,631.928 L 117.105,631.713 L 116.941,631.5 L 116.781,631.28 L 116.627,631.057 L 116.476,630.829 L 116.332,630.6 L 116.195,630.365 L 116.061,630.127 L 115.933,629.887 L 115.812,629.641 L 115.696,629.393 L 115.587,629.14 L 115.481,628.887 L 115.385,628.631 L 115.293,628.368 L 115.208,628.105 L 115.128,627.84 L 115.056,627.571 L 114.989,627.299 L 114.929,627.025 L 114.877,626.747 L 114.829,626.469 L 114.792,626.191 L 114.76,625.904 L 114.732,625.616 L 114.715,625.329 L 114.703,625.041 L 114.701,624.741 L 114.701,390.688 L 114.703,390.388 L 114.715,390.1 L 113.717,390.049 L 113.705,390.364 L 113.701,390.685 L 113.701,624.744 L 113.705,625.065 L 113.717,625.38 L 113.737,625.693 L 113.765,626.005 L 113.8,626.313 L 113.843,626.619 L 113.893,626.923 L 113.951,627.223 L 114.016,627.523 L 114.088,627.819 L 114.168,628.112 L 114.253,628.401 L 114.347,628.688 L 114.447,628.972 L 114.553,629.252 L 114.667,629.529 L 114.787,629.804 L 114.913,630.073 L 115.045,630.34 L 115.184,630.604 L 115.328,630.861 L 115.479,631.117 L 115.636,631.368 L 115.8,631.617 L 115.968,631.859 L 116.141,632.097 L 116.321,632.332 L 116.508,632.563 L 116.697,632.788 L 116.893,633.007 L 117.095,633.223 L 117.299,633.435 L 117.511,633.639 L 117.727,633.84 L 117.945,634.036 L 118.171,634.225 L 118.401,634.412 L 118.636,634.592 L 118.875,634.765 L 119.116,634.933 L 119.365,635.097 L 119.616,635.255 L 119.872,635.405 L 120.129,635.549 L 120.393,635.688 L 120.66,635.82 L 120.929,635.947 L 121.204,636.067 L 121.481,636.18 L 121.761,636.287 L 122.045,636.387 L 122.332,636.48 L 122.621,636.565 L 122.915,636.645 L 123.211,636.717 L 123.511,636.783 L 123.811,636.84 L 124.115,636.891 L 124.42,636.933 L 124.728,636.968 L 125.04,636.996 L 125.353,637.016 L 125.668,637.028 L 125.989,637.032 L 236.413,637.032 L 236.735,637.028 L 237.049,637.016 L 237.363,636.996 L 237.675,636.968 L 237.983,636.933 L 238.288,636.891 L 238.592,636.84 L 238.892,636.783 L 239.192,636.717 L 239.488,636.645 L 239.781,636.565 L 240.071,636.48 L 240.357,636.387 L 240.641,636.287 L 240.921,636.18 L 241.199,636.067 L 241.473,635.947 L 241.743,635.82 L 242.009,635.688 L 242.273,635.549 L 242.531,635.405 L 242.787,635.255 L 243.037,635.097 L 243.287,634.933 L 243.528,634.765 L 243.767,634.592 L 244.001,634.412 L 244.232,634.225 L 244.457,634.036 L 244.676,633.84 L 244.892,633.639 L 245.104,633.435 L 245.308,633.223 L 245.509,633.007 L 245.705,632.788 L 245.895,632.563 L 246.081,632.332 L 246.261,632.097 L 246.435,631.859 L 246.603,631.617 L 246.767,631.368 L 246.924,631.117 L 247.075,630.861 L 247.219,630.604 L 247.357,630.34 L 247.489,630.073 L 247.616,629.804 L 247.736,629.529 L 247.849,629.252 L 247.956,628.972 L 248.056,628.688 L 248.149,628.401 L 248.235,628.112 L 248.315,627.819 L 248.387,627.523 L 248.452,627.223 L 248.509,626.923 L 248.56,626.619 L 248.603,626.313 L 248.637,626.005 L 248.665,625.693 L 248.685,625.38 L 248.697,625.065 L 248.701,624.744 L 248.701,390.685 L 248.697,390.364 L 248.685,390.049 L 248.665,389.736 L 248.637,389.424 L 248.603,389.116 L 248.56,388.811 L 248.509,388.507 L 248.452,388.207 L 248.387,387.907 L 248.315,387.611 L 248.235,387.317 L 248.149,387.028 L 248.056,386.741 L 247.956,386.457 L 247.849,386.177 L 247.736,385.9 L 247.616,385.625 L 247.489,385.356 L 247.357,385.089 L 247.219,384.825 L 247.075,384.568 L 246.924,384.312 L 246.767,384.061 L 246.603,383.812 L 246.435,383.571 L 246.261,383.332 L 246.081,383.097 L 245.895,382.867 L 245.705,382.641 L 245.509,382.423 L 245.308,382.207 L 245.104,381.995 L 244.892,381.791 L 244.676,381.589 L 244.457,381.393 L 244.232,381.204 L 244.001,381.017 L 243.767,380.837 L 243.528,380.664 L 243.287,380.496 L 243.037,380.332 L 242.787,380.175 L 242.531,380.024 L 242.273,379.88 L 242.009,379.741 L 241.743,379.609 L 241.473,379.483 L 241.199,379.363 L 240.921,379.249 L 240.641,379.143 L 240.357,379.043 L 240.071,378.949 L 239.781,378.864 L 239.488,378.784 L 239.192,378.712 L 238.892,378.647 L 238.592,378.589 L 238.288,378.539 L 237.983,378.496 L 237.675,378.461 L 237.363,378.433 L 237.049,378.413 L 236.735,378.401 L 236.413,378.397 L 125.989,378.397 L 125.668,378.401 L 125.353,378.413 L 125.04,378.433 L 124.728,378.461 L 124.42,378.496 L 124.115,378.539 L 123.811,378.589 L 123.511,378.647 L 123.211,378.712 L 122.915,378.784 L 122.621,378.864 L 122.332,378.949 L 122.045,379.043 L 121.761,379.143 L 121.481,379.249 L 121.204,379.363 L 120.929,379.483 L 120.66,379.609 L 120.393,379.741 L 120.129,379.88 L 119.872,380.024 L 119.616,380.175 L 119.365,380.332 L 119.116,380.496 L 118.875,380.664 L 118.636,380.837 L 118.401,381.017 L 118.171,381.204 L 117.945,381.393 L 117.727,381.589 L 117.511,381.791 L 117.299,381.995 L 117.095,382.207 L 116.893,382.423 L 116.697,382.641 L 116.508,382.867 L 116.321,383.097 L 116.141,383.332 L 115.968,383.571 L 115.8,383.812 L 115.636,384.061 L 115.479,384.312 L 115.328,384.568 L 115.184,384.825 L 115.045,385.089 L 114.913,385.356 L 114.787,385.625 L 114.667,385.9 L 114.553,386.177 L 114.447,386.457 L 114.347,386.741 L 114.253,387.028 L 114.168,387.317 L 114.088,387.611 L 114.016,387.907 L 113.951,388.207 L 113.893,388.507 L 113.843,388.811 L 113.8,389.116 L 113.765,389.424 L 113.737,389.736 L 113.717,390.049 Z "/>
				<path id="dp_path006" fill="black" d="M 112.717,389.999 L 112.74,389.659 L 112.771,389.324 L 112.808,388.991 L 112.853,388.659 L 112.909,388.331 L 112.972,388.005 L 113.043,387.683 L 113.12,387.363 L 113.205,387.045 L 113.299,386.732 L 113.4,386.421 L 113.508,386.113 L 113.623,385.811 L 113.747,385.511 L 113.875,385.215 L 114.012,384.921 L 114.156,384.633 L 114.304,384.349 L 114.46,384.071 L 114.625,383.793 L 114.796,383.52 L 114.971,383.253 L 115.152,382.991 L 115.341,382.732 L 115.535,382.48 L 115.735,382.232 L 115.94,381.988 L 116.153,381.748 L 116.369,381.516 L 116.592,381.288 L 116.82,381.065 L 117.052,380.849 L 117.292,380.636 L 117.536,380.431 L 117.784,380.231 L 118.036,380.037 L 118.295,379.848 L 118.557,379.667 L 118.824,379.492 L 119.097,379.321 L 119.375,379.156 L 119.653,379 L 119.937,378.852 L 120.225,378.708 L 120.519,378.571 L 120.815,378.443 L 121.115,378.319 L 121.417,378.204 L 121.725,378.096 L 122.036,377.995 L 122.349,377.901 L 122.667,377.816 L 122.987,377.739 L 123.309,377.668 L 123.635,377.605 L 123.963,377.549 L 124.295,377.504 L 124.628,377.467 L 124.963,377.436 L 125.303,377.413 L 125.644,377.401 L 125.983,377.397 L 236.42,377.397 L 236.759,377.401 L 237.1,377.413 L 237.44,377.436 L 237.775,377.467 L 238.108,377.504 L 238.44,377.549 L 238.768,377.605 L 239.093,377.668 L 239.416,377.739 L 239.736,377.816 L 240.053,377.901 L 240.367,377.995 L 240.677,378.096 L 240.985,378.204 L 241.288,378.319 L 241.588,378.443 L 241.884,378.571 L 242.177,378.708 L 242.465,378.852 L 242.749,379 L 243.028,379.156 L 243.305,379.321 L 243.579,379.492 L 243.845,379.667 L 244.108,379.848 L 244.367,380.037 L 244.619,380.231 L 244.867,380.431 L 245.111,380.636 L 245.351,380.849 L 245.583,381.065 L 245.811,381.288 L 246.033,381.516 L 246.249,381.748 L 246.463,381.988 L 246.668,382.232 L 246.868,382.48 L 247.061,382.732 L 247.251,382.991 L 247.432,383.253 L 247.607,383.52 L 247.777,383.793 L 247.943,384.071 L 248.099,384.349 L 248.247,384.633 L 248.391,384.921 L 248.528,385.215 L 248.656,385.511 L 248.78,385.811 L 248.895,386.113 L 249.003,386.421 L 249.104,386.732 L 249.197,387.045 L 249.283,387.363 L 249.36,387.683 L 249.431,388.005 L 249.493,388.331 L 249.549,388.659 L 249.595,388.991 L 249.632,389.324 L 249.663,389.659 L 249.685,389.999 L 249.697,390.34 L 249.701,390.679 L 249.701,624.751 L 249.697,625.089 L 249.685,625.431 L 249.663,625.771 L 249.632,626.105 L 249.595,626.439 L 249.549,626.771 L 249.493,627.099 L 249.431,627.424 L 249.36,627.747 L 249.283,628.067 L 249.197,628.384 L 249.104,628.697 L 249.003,629.008 L 248.895,629.316 L 248.78,629.619 L 248.656,629.919 L 248.528,630.215 L 248.391,630.508 L 248.247,630.796 L 248.099,631.08 L 247.943,631.359 L 247.777,631.636 L 247.607,631.909 L 247.432,632.176 L 247.251,632.439 L 247.061,632.697 L 246.868,632.949 L 246.668,633.197 L 246.463,633.441 L 246.249,633.681 L 246.033,633.913 L 245.811,634.141 L 245.583,634.364 L 245.351,634.58 L 245.111,634.793 L 244.867,634.999 L 244.619,635.199 L 244.367,635.392 L 244.108,635.581 L 243.845,635.763 L 243.579,635.937 L 243.305,636.108 L 243.028,636.273 L 242.749,636.429 L 242.465,636.577 L 242.177,636.721 L 241.884,636.859 L 241.588,636.987 L 241.288,637.111 L 240.985,637.225 L 240.677,637.333 L 240.367,637.435 L 240.053,637.528 L 239.736,637.613 L 239.416,637.691 L 239.093,637.761 L 238.768,637.824 L 238.44,637.88 L 238.108,637.925 L 237.775,637.963 L 237.44,637.993 L 237.1,638.016 L 236.759,638.028 L 236.42,638.032 L 125.983,638.032 L 125.644,638.028 L 125.303,638.016 L 124.963,637.993 L 124.628,637.963 L 124.295,637.925 L 123.963,637.88 L 123.635,637.824 L 123.309,637.761 L 122.987,637.691 L 122.667,637.613 L 122.349,637.528 L 122.036,637.435 L 121.725,637.333 L 121.417,637.225 L 121.115,637.111 L 120.815,636.987 L 120.519,636.859 L 120.225,636.721 L 119.937,636.577 L 119.653,636.429 L 119.375,636.273 L 119.097,636.108 L 118.824,635.937 L 118.557,635.763 L 118.295,635.581 L 118.036,635.392 L 117.784,635.199 L 117.536,634.999 L 117.292,634.793 L 117.052,634.58 L 116.82,634.364 L 116.592,634.141 L 116.369,633.913 L 116.153,633.681 L 115.94,633.441 L 115.735,633.197 L 115.535,632.949 L 115.341,632.697 L 115.152,632.439 L 114.971,632.176 L 114.796,631.909 L 114.625,631.636 L 114.46,631.359 L 114.304,631.08 L 114.156,630.796 L 114.012,630.508 L 113.875,630.215 L 113.747,629.919 L 113.623,629.619 L 113.508,629.316 L 113.4,629.008 L 113.299,628.697 L 113.205,628.384 L 113.12,628.067 L 113.043,627.747 L 112.972,627.424 L 112.909,627.099 L 112.853,626.771 L 112.808,626.439 L 112.771,626.105 L 112.74,625.771 L 112.717,625.431 L 112.705,625.089 L 112.701,624.751 L 112.701,390.679 L 112.705,390.34 L 112.717,389.999 L 111.72,389.948 L 111.708,390.316 L 111.701,390.673 L 111.701,624.756 L 111.708,625.113 L 111.72,625.481 L 111.745,625.848 L 111.776,626.204 L 111.816,626.561 L 111.867,626.92 L 111.925,627.275 L 111.993,627.624 L 112.069,627.971 L 112.152,628.315 L 112.245,628.656 L 112.344,628.993 L 112.453,629.328 L 112.569,629.657 L 112.695,629.987 L 112.827,630.308 L 112.965,630.625 L 113.113,630.94 L 113.265,631.249 L 113.427,631.555 L 113.596,631.857 L 113.772,632.156 L 113.956,632.448 L 114.144,632.733 L 114.339,633.015 L 114.541,633.295 L 114.751,633.565 L 114.964,633.832 L 115.185,634.095 L 115.415,634.353 L 115.647,634.601 L 115.885,634.848 L 116.132,635.087 L 116.38,635.319 L 116.639,635.548 L 116.901,635.769 L 117.168,635.983 L 117.439,636.192 L 117.719,636.395 L 118,636.589 L 118.285,636.777 L 118.577,636.961 L 118.876,637.137 L 119.179,637.307 L 119.484,637.468 L 119.793,637.62 L 120.108,637.768 L 120.425,637.907 L 120.747,638.039 L 121.076,638.164 L 121.405,638.28 L 121.74,638.389 L 122.077,638.488 L 122.419,638.581 L 122.763,638.664 L 123.109,638.74 L 123.459,638.808 L 123.813,638.867 L 124.172,638.917 L 124.529,638.957 L 124.885,638.988 L 125.252,639.013 L 125.62,639.025 L 125.977,639.032 L 236.425,639.032 L 236.783,639.025 L 237.151,639.013 L 237.517,638.988 L 237.873,638.957 L 238.231,638.917 L 238.589,638.867 L 238.944,638.808 L 239.293,638.74 L 239.64,638.664 L 239.984,638.581 L 240.325,638.488 L 240.663,638.389 L 240.997,638.28 L 241.327,638.164 L 241.656,638.039 L 241.977,637.907 L 242.295,637.768 L 242.609,637.62 L 242.919,637.468 L 243.224,637.307 L 243.527,637.137 L 243.825,636.961 L 244.117,636.777 L 244.403,636.589 L 244.684,636.395 L 244.964,636.192 L 245.235,635.983 L 245.501,635.769 L 245.764,635.548 L 246.023,635.319 L 246.271,635.087 L 246.517,634.848 L 246.756,634.601 L 246.988,634.353 L 247.217,634.095 L 247.439,633.832 L 247.652,633.565 L 247.861,633.295 L 248.064,633.015 L 248.259,632.733 L 248.447,632.448 L 248.631,632.156 L 248.807,631.857 L 248.976,631.555 L 249.137,631.249 L 249.289,630.94 L 249.437,630.625 L 249.576,630.308 L 249.708,629.987 L 249.833,629.657 L 249.949,629.328 L 250.059,628.993 L 250.157,628.656 L 250.251,628.315 L 250.333,627.971 L 250.409,627.624 L 250.477,627.275 L 250.536,626.92 L 250.587,626.561 L 250.627,626.204 L 250.657,625.848 L 250.683,625.481 L 250.695,625.113 L 250.701,624.756 L 250.701,390.673 L 250.695,390.316 L 250.683,389.948 L 250.657,389.581 L 250.627,389.225 L 250.587,388.868 L 250.536,388.509 L 250.477,388.155 L 250.409,387.805 L 250.333,387.459 L 250.251,387.115 L 250.157,386.773 L 250.059,386.436 L 249.949,386.101 L 249.833,385.772 L 249.708,385.443 L 249.576,385.121 L 249.437,384.804 L 249.289,384.489 L 249.137,384.18 L 248.976,383.875 L 248.807,383.572 L 248.631,383.273 L 248.447,382.981 L 248.259,382.696 L 248.064,382.415 L 247.861,382.135 L 247.652,381.864 L 247.439,381.597 L 247.217,381.335 L 246.988,381.076 L 246.756,380.828 L 246.517,380.581 L 246.271,380.343 L 246.023,380.111 L 245.764,379.881 L 245.501,379.66 L 245.235,379.447 L 244.964,379.237 L 244.684,379.035 L 244.403,378.84 L 244.117,378.652 L 243.825,378.468 L 243.527,378.292 L 243.224,378.123 L 242.919,377.961 L 242.609,377.809 L 242.295,377.661 L 241.977,377.523 L 241.656,377.391 L 241.327,377.265 L 240.997,377.149 L 240.663,377.04 L 240.325,376.941 L 239.984,376.848 L 239.64,376.765 L 239.293,376.689 L 238.944,376.621 L 238.589,376.563 L 238.231,376.512 L 237.873,376.472 L 237.517,376.441 L 237.151,376.416 L 236.783,376.404 L 236.425,376.397 L 125.977,376.397 L 125.62,376.404 L 125.252,376.416 L 124.885,376.441 L 124.529,376.472 L 124.172,376.512 L 123.813,376.563 L 123.459,376.621 L 123.109,376.689 L 122.763,376.765 L 122.419,376.848 L 122.077,376.941 L 121.74,377.04 L 121.405,377.149 L 121.076,377.265 L 120.747,377.391 L 120.425,377.523 L 120.108,377.661 L 119.793,377.809 L 119.484,377.961 L 119.179,378.123 L 118.876,378.292 L 118.577,378.468 L 118.285,378.652 L 118,378.84 L 117.719,379.035 L 117.439,379.237 L 117.168,379.447 L 116.901,379.66 L 116.639,379.881 L 116.38,380.111 L 116.132,380.343 L 115.885,380.581 L 115.647,380.828 L 115.415,381.076 L 115.185,381.335 L 114.964,381.597 L 114.751,381.864 L 114.541,382.135 L 114.339,382.415 L 114.144,382.696 L 113.956,382.981 L 113.772,383.273 L 113.596,383.572 L 113.427,383.875 L 113.265,384.18 L 113.113,384.489 L 112.965,384.804 L 112.827,385.121 L 112.695,385.443 L 112.569,385.772 L 112.453,386.101 L 112.344,386.436 L 112.245,386.773 L 112.152,387.115 L 112.069,387.459 L 111.993,387.805 L 111.925,388.155 L 111.867,388.509 L 111.816,388.868 L 111.776,389.225 L 111.745,389.581 L 111.72,389.948 Z "/>
			</g>
		</g>
		<path id="dp_path007" fill="white" fill-rule="evenodd" stroke="black" stroke-width="2" d="M 119.383,405.953 L 243.019,405.953 L 243.019,608.024 L 119.383,608.024 Z "/>
		<path id="dp_path008" fill="white" fill-rule="evenodd" stroke="black" stroke-width="2" d="M 181.201,612.6 C 185.98,612.6 189.855,616.475 189.855,621.253 C 189.855,626.032 185.98,629.907 181.201,629.907 C 176.423,629.907 172.548,626.032 172.548,621.253 C 172.548,616.475 176.423,612.6 181.201,612.6 Z "/>
		<path id="dp_path009" fill="white" fill-rule="evenodd" stroke="black" stroke-width="2" d="M 181.201,382.431 C 182.225,382.431 183.056,383.261 183.056,384.285 C 183.056,385.309 182.225,386.14 181.201,386.14 C 180.177,386.14 179.347,385.309 179.347,384.285 C 179.347,383.261 180.177,382.431 181.201,382.431 Z "/>
		<path id="dp_path010" fill="white" fill-rule="evenodd" stroke="black" stroke-width="2" d="M 168.813,394.588 C 168.813,394.015 169.279,393.549 169.852,393.549 L 192.501,393.549 C 193.075,393.549 193.54,394.015 193.54,394.588 L 193.54,394.587 C 193.54,395.16 193.075,395.625 192.501,395.625 L 169.852,395.625 C 169.279,395.625 168.813,395.16 168.813,394.587 Z "/>
		<path id="dp_path011" fill="white" fill-rule="evenodd" stroke="black" stroke-width="2" d="M 162.243,393.228 C 162.993,393.228 163.601,393.837 163.601,394.588 C 163.601,395.339 162.993,395.948 162.243,395.948 C 161.492,395.948 160.884,395.339 160.884,394.588 C 160.884,393.837 161.492,393.228 162.243,393.228 Z "/>
	</g>
</svg>