<?xml version="1.0" encoding="UTF-8" standalone="no"?>
<!-- Created with Serif DrawPlus 11, 0, 0, 18 (Mar 20, 15:09:53) (http://www.serif.com) -->
<svg version="1.1" xmlns="http://www.w3.org/2000/svg" xmlns:xlink="http://www.w3.org/1999/xlink" xmlns:i="http://ns.adobe.com/AdobeIllustrator/10.0/" width="138.991" height="291.097">
	<g id="dp_group001" transform="matrix(1,0,0,1,-355.187,-564.749)">
		<path id="dp_path003" fill="white" fill-rule="evenodd" d="M 356.687,607.495 C 356.687,600.435 362.411,594.711 369.471,594.711 L 479.903,594.711 C 486.963,594.711 492.687,600.435 492.687,607.495 L 492.687,841.561 C 492.687,848.621 486.963,854.345 479.903,854.345 L 369.471,854.345 C 362.411,854.345 356.687,848.621 356.687,841.561 Z "/>
		<g id="dp_group004">
			<path id="dp_path005" fill="black" fill-rule="evenodd" d="M 358.2,579.937 L 358.217,579.619 L 358.245,579.3 L 358.277,578.983 L 358.315,578.673 L 358.363,578.367 L 358.415,578.057 L 358.475,577.755 L 358.541,577.453 L 358.613,577.155 L 358.693,576.86 L 358.779,576.569 L 358.871,576.277 L 358.967,575.995 L 359.072,575.713 L 359.181,575.432 L 359.297,575.157 L 359.419,574.885 L 359.547,574.62 L 359.68,574.355 L 359.817,574.095 L 359.961,573.841 L 360.112,573.588 L 360.267,573.341 L 360.427,573.097 L 360.591,572.861 L 360.764,572.623 L 360.937,572.395 L 361.115,572.172 L 361.303,571.951 L 361.491,571.736 L 361.684,571.528 L 361.884,571.32 L 362.084,571.123 L 362.291,570.931 L 362.505,570.739 L 362.719,570.557 L 362.939,570.38 L 363.161,570.208 L 363.389,570.041 L 363.619,569.881 L 363.853,569.729 L 364.091,569.581 L 364.331,569.44 L 364.576,569.305 L 364.824,569.177 L 365.077,569.056 L 365.331,568.939 L 365.587,568.832 L 365.849,568.731 L 366.112,568.636 L 366.377,568.548 L 366.647,568.468 L 366.919,568.393 L 367.192,568.327 L 367.471,568.269 L 367.748,568.216 L 368.027,568.175 L 368.313,568.14 L 368.601,568.108 L 368.888,568.089 L 369.176,568.076 L 369.476,568.075 L 479.887,568.075 L 480.187,568.076 L 480.475,568.089 L 480.761,568.108 L 481.049,568.14 L 481.336,568.175 L 481.615,568.216 L 481.892,568.269 L 482.171,568.327 L 482.444,568.393 L 482.716,568.468 L 482.985,568.548 L 483.251,568.636 L 483.513,568.731 L 483.776,568.832 L 484.032,568.939 L 484.285,569.056 L 484.539,569.177 L 484.787,569.305 L 485.032,569.44 L 485.272,569.581 L 485.509,569.729 L 485.744,569.881 L 485.973,570.041 L 486.201,570.208 L 486.424,570.38 L 486.644,570.557 L 486.857,570.739 L 487.072,570.931 L 487.279,571.123 L 487.479,571.32 L 487.679,571.528 L 487.872,571.736 L 488.06,571.951 L 488.248,572.172 L 488.425,572.395 L 488.599,572.623 L 488.772,572.861 L 488.936,573.097 L 489.096,573.341 L 489.251,573.588 L 489.401,573.841 L 489.545,574.095 L 489.683,574.355 L 489.816,574.62 L 489.944,574.885 L 490.065,575.157 L 490.181,575.432 L 490.291,575.713 L 490.396,575.995 L 490.492,576.277 L 490.584,576.569 L 490.669,576.86 L 490.749,577.155 L 490.821,577.453 L 490.888,577.755 L 490.948,578.057 L 491,578.367 L 491.048,578.673 L 491.085,578.983 L 491.117,579.3 L 491.145,579.619 L 491.163,579.937 L 491.175,580.256 L 491.176,580.588 L 491.176,840.005 L 491.175,840.339 L 491.163,840.657 L 491.145,840.975 L 491.117,841.295 L 491.085,841.612 L 491.048,841.921 L 491,842.228 L 490.948,842.537 L 490.888,842.84 L 490.821,843.141 L 490.749,843.44 L 490.669,843.735 L 490.584,844.025 L 490.492,844.317 L 490.396,844.6 L 490.291,844.881 L 490.181,845.161 L 490.065,845.437 L 489.944,845.709 L 489.816,845.975 L 489.683,846.239 L 489.545,846.5 L 489.401,846.753 L 489.251,847.007 L 489.096,847.253 L 488.936,847.497 L 488.772,847.733 L 488.599,847.972 L 488.425,848.2 L 488.248,848.423 L 488.06,848.644 L 487.872,848.859 L 487.679,849.067 L 487.479,849.275 L 487.279,849.472 L 487.072,849.664 L 486.857,849.856 L 486.644,850.037 L 486.424,850.215 L 486.201,850.387 L 485.973,850.553 L 485.744,850.713 L 485.509,850.865 L 485.272,851.013 L 485.032,851.155 L 484.787,851.289 L 484.539,851.417 L 484.285,851.539 L 484.032,851.656 L 483.776,851.761 L 483.513,851.864 L 483.251,851.959 L 482.985,852.047 L 482.716,852.127 L 482.444,852.201 L 482.171,852.268 L 481.892,852.325 L 481.615,852.379 L 481.336,852.42 L 481.049,852.455 L 480.761,852.487 L 480.475,852.505 L 480.187,852.519 L 479.887,852.52 L 369.476,852.52 L 369.176,852.519 L 368.888,852.505 L 368.601,852.487 L 368.313,852.455 L 368.027,852.42 L 367.748,852.379 L 367.471,852.325 L 367.192,852.268 L 366.919,852.201 L 366.647,852.127 L 366.377,852.047 L 366.112,851.959 L 365.849,851.864 L 365.587,851.761 L 365.331,851.656 L 365.077,851.539 L 364.824,851.417 L 364.576,851.289 L 364.331,851.155 L 364.091,851.013 L 363.853,850.865 L 363.619,850.713 L 363.389,850.553 L 363.161,850.387 L 362.939,850.215 L 362.719,850.037 L 362.505,849.856 L 362.291,849.664 L 362.084,849.472 L 361.884,849.275 L 361.684,849.067 L 361.491,848.859 L 361.303,848.644 L 361.115,848.423 L 360.937,848.2 L 360.764,847.972 L 360.591,847.733 L 360.427,847.497 L 360.267,847.253 L 360.112,847.007 L 359.961,846.753 L 359.817,846.5 L 359.68,846.239 L 359.547,845.975 L 359.419,845.709 L 359.297,845.437 L 359.181,845.161 L 359.072,844.881 L 358.967,844.6 L 358.871,844.317 L 358.779,844.025 L 358.693,843.735 L 358.613,843.44 L 358.541,843.141 L 358.475,842.84 L 358.415,842.537 L 358.363,842.228 L 358.315,841.921 L 358.277,841.612 L 358.245,841.295 L 358.217,840.975 L 358.2,840.657 L 358.188,840.339 L 358.187,840.005 L 358.187,580.588 L 358.188,580.256 L 358.2,579.937 L 357.203,579.881 L 357.191,580.229 L 357.187,580.585 L 357.187,840.009 L 357.191,840.365 L 357.203,840.713 L 357.223,841.061 L 357.251,841.407 L 357.285,841.748 L 357.328,842.087 L 357.379,842.424 L 357.436,842.756 L 357.501,843.088 L 357.573,843.417 L 357.653,843.741 L 357.739,844.063 L 357.832,844.38 L 357.932,844.695 L 358.039,845.005 L 358.152,845.313 L 358.272,845.617 L 358.399,845.916 L 358.531,846.211 L 358.669,846.504 L 358.813,846.789 L 358.964,847.073 L 359.121,847.351 L 359.285,847.627 L 359.453,847.895 L 359.627,848.159 L 359.807,848.419 L 359.993,848.675 L 360.183,848.924 L 360.379,849.167 L 360.58,849.407 L 360.784,849.641 L 360.996,849.868 L 361.212,850.091 L 361.431,850.308 L 361.656,850.517 L 361.887,850.724 L 362.121,850.924 L 362.36,851.116 L 362.601,851.303 L 362.851,851.484 L 363.101,851.659 L 363.357,851.825 L 363.615,851.985 L 363.877,852.139 L 364.144,852.285 L 364.413,852.425 L 364.688,852.559 L 364.965,852.684 L 365.245,852.803 L 365.529,852.913 L 365.816,853.016 L 366.105,853.111 L 366.399,853.2 L 366.695,853.28 L 366.995,853.352 L 367.295,853.416 L 367.599,853.472 L 367.904,853.519 L 368.212,853.557 L 368.524,853.588 L 368.837,853.611 L 369.152,853.624 L 369.473,853.628 L 479.889,853.628 L 480.211,853.624 L 480.525,853.611 L 480.839,853.588 L 481.151,853.557 L 481.459,853.519 L 481.764,853.472 L 482.068,853.416 L 482.368,853.352 L 482.668,853.28 L 482.964,853.2 L 483.257,853.111 L 483.547,853.016 L 483.833,852.913 L 484.117,852.803 L 484.397,852.684 L 484.675,852.559 L 484.949,852.425 L 485.219,852.285 L 485.485,852.139 L 485.748,851.985 L 486.005,851.825 L 486.261,851.659 L 486.512,851.484 L 486.761,851.303 L 487.003,851.116 L 487.241,850.924 L 487.476,850.724 L 487.707,850.517 L 487.932,850.308 L 488.151,850.091 L 488.367,849.868 L 488.579,849.641 L 488.783,849.407 L 488.984,849.167 L 489.18,848.924 L 489.369,848.675 L 489.556,848.419 L 489.736,848.159 L 489.909,847.895 L 490.077,847.627 L 490.241,847.351 L 490.399,847.073 L 490.549,846.789 L 490.693,846.504 L 490.832,846.211 L 490.964,845.916 L 491.091,845.617 L 491.211,845.313 L 491.324,845.005 L 491.431,844.695 L 491.531,844.38 L 491.624,844.063 L 491.709,843.741 L 491.789,843.417 L 491.861,843.088 L 491.927,842.756 L 491.984,842.424 L 492.035,842.087 L 492.077,841.748 L 492.112,841.407 L 492.14,841.061 L 492.16,840.713 L 492.172,840.365 L 492.176,840.009 L 492.176,580.585 L 492.172,580.229 L 492.16,579.881 L 492.14,579.533 L 492.112,579.188 L 492.077,578.847 L 492.035,578.508 L 491.984,578.171 L 491.927,577.839 L 491.861,577.505 L 491.789,577.177 L 491.709,576.853 L 491.624,576.532 L 491.531,576.215 L 491.431,575.9 L 491.324,575.589 L 491.211,575.281 L 491.091,574.977 L 490.964,574.679 L 490.832,574.383 L 490.693,574.091 L 490.549,573.805 L 490.399,573.521 L 490.241,573.244 L 490.077,572.968 L 489.909,572.7 L 489.736,572.436 L 489.556,572.176 L 489.369,571.92 L 489.18,571.669 L 488.984,571.428 L 488.783,571.188 L 488.579,570.953 L 488.367,570.727 L 488.151,570.504 L 487.932,570.287 L 487.707,570.077 L 487.476,569.869 L 487.241,569.671 L 487.003,569.479 L 486.761,569.292 L 486.512,569.111 L 486.261,568.936 L 486.005,568.769 L 485.748,568.609 L 485.485,568.456 L 485.219,568.309 L 484.949,568.169 L 484.675,568.036 L 484.397,567.911 L 484.117,567.792 L 483.833,567.681 L 483.547,567.577 L 483.257,567.483 L 482.964,567.395 L 482.668,567.315 L 482.368,567.243 L 482.068,567.179 L 481.764,567.123 L 481.459,567.076 L 481.151,567.037 L 480.839,567.005 L 480.525,566.984 L 480.211,566.971 L 479.889,566.967 L 369.473,566.967 L 369.152,566.971 L 368.837,566.984 L 368.524,567.005 L 368.212,567.037 L 367.904,567.076 L 367.599,567.123 L 367.295,567.179 L 366.995,567.243 L 366.695,567.315 L 366.399,567.395 L 366.105,567.483 L 365.816,567.577 L 365.529,567.681 L 365.245,567.792 L 364.965,567.911 L 364.688,568.036 L 364.413,568.169 L 364.144,568.309 L 363.877,568.456 L 363.615,568.609 L 363.357,568.769 L 363.101,568.936 L 362.851,569.111 L 362.601,569.292 L 362.36,569.479 L 362.121,569.671 L 361.887,569.869 L 361.656,570.077 L 361.431,570.287 L 361.212,570.504 L 360.996,570.727 L 360.784,570.953 L 360.58,571.188 L 360.379,571.428 L 360.183,571.669 L 359.993,571.92 L 359.807,572.176 L 359.627,572.436 L 359.453,572.7 L 359.285,572.968 L 359.121,573.244 L 358.964,573.521 L 358.813,573.805 L 358.669,574.091 L 358.531,574.383 L 358.399,574.679 L 358.272,574.977 L 358.152,575.281 L 358.039,575.589 L 357.932,575.9 L 357.832,576.215 L 357.739,576.532 L 357.653,576.853 L 357.573,577.177 L 357.501,577.505 L 357.436,577.839 L 357.379,578.171 L 357.328,578.508 L 357.285,578.847 L 357.251,579.188 L 357.223,579.533 L 357.203,579.881 Z "/>
			<path id="dp_path006" fill="black" fill-rule="evenodd" d="M 356.203,579.824 L 356.225,579.448 L 356.256,579.077 L 356.293,578.708 L 356.339,578.34 L 356.395,577.976 L 356.457,577.615 L 356.528,577.257 L 356.605,576.903 L 356.691,576.551 L 356.784,576.204 L 356.885,575.86 L 356.993,575.519 L 357.108,575.183 L 357.232,574.851 L 357.36,574.523 L 357.497,574.197 L 357.641,573.877 L 357.789,573.563 L 357.945,573.255 L 358.111,572.947 L 358.281,572.644 L 358.456,572.348 L 358.637,572.057 L 358.827,571.771 L 359.02,571.491 L 359.22,571.216 L 359.425,570.945 L 359.639,570.68 L 359.855,570.423 L 360.077,570.169 L 360.305,569.923 L 360.537,569.684 L 360.777,569.448 L 361.021,569.22 L 361.269,568.999 L 361.521,568.784 L 361.78,568.573 L 362.043,568.373 L 362.309,568.18 L 362.583,567.991 L 362.86,567.807 L 363.139,567.635 L 363.423,567.471 L 363.711,567.311 L 364.003,567.159 L 364.299,567.016 L 364.599,566.879 L 364.901,566.752 L 365.209,566.632 L 365.52,566.52 L 365.833,566.416 L 366.151,566.321 L 366.471,566.236 L 366.793,566.157 L 367.119,566.088 L 367.447,566.027 L 367.779,565.976 L 368.112,565.935 L 368.447,565.9 L 368.787,565.876 L 369.128,565.863 L 369.467,565.857 L 479.896,565.857 L 480.235,565.863 L 480.576,565.876 L 480.916,565.9 L 481.251,565.935 L 481.584,565.976 L 481.916,566.027 L 482.244,566.088 L 482.569,566.157 L 482.892,566.236 L 483.212,566.321 L 483.529,566.416 L 483.843,566.52 L 484.153,566.632 L 484.461,566.752 L 484.764,566.879 L 485.064,567.016 L 485.36,567.159 L 485.652,567.311 L 485.94,567.471 L 486.224,567.635 L 486.503,567.807 L 486.78,567.991 L 487.053,568.18 L 487.32,568.373 L 487.583,568.573 L 487.841,568.784 L 488.093,568.999 L 488.341,569.22 L 488.585,569.448 L 488.825,569.684 L 489.057,569.923 L 489.285,570.169 L 489.508,570.423 L 489.724,570.68 L 489.937,570.945 L 490.143,571.216 L 490.343,571.491 L 490.536,571.771 L 490.725,572.057 L 490.907,572.348 L 491.081,572.644 L 491.252,572.947 L 491.417,573.255 L 491.573,573.563 L 491.721,573.877 L 491.865,574.197 L 492.003,574.523 L 492.131,574.851 L 492.255,575.183 L 492.369,575.519 L 492.477,575.86 L 492.579,576.204 L 492.672,576.551 L 492.757,576.903 L 492.835,577.257 L 492.905,577.615 L 492.968,577.976 L 493.024,578.34 L 493.069,578.708 L 493.107,579.077 L 493.137,579.448 L 493.16,579.824 L 493.172,580.203 L 493.176,580.579 L 493.176,840.016 L 493.172,840.392 L 493.16,840.769 L 493.137,841.147 L 493.107,841.517 L 493.069,841.887 L 493.024,842.255 L 492.968,842.619 L 492.905,842.979 L 492.835,843.337 L 492.757,843.692 L 492.672,844.043 L 492.579,844.391 L 492.477,844.735 L 492.369,845.076 L 492.255,845.412 L 492.131,845.744 L 492.003,846.072 L 491.865,846.397 L 491.721,846.717 L 491.573,847.032 L 491.417,847.34 L 491.252,847.648 L 491.081,847.951 L 490.907,848.247 L 490.725,848.537 L 490.536,848.824 L 490.343,849.104 L 490.143,849.379 L 489.937,849.649 L 489.724,849.915 L 489.508,850.172 L 489.285,850.424 L 489.057,850.671 L 488.825,850.911 L 488.585,851.147 L 488.341,851.375 L 488.093,851.596 L 487.841,851.811 L 487.583,852.02 L 487.32,852.221 L 487.053,852.415 L 486.78,852.604 L 486.503,852.788 L 486.224,852.96 L 485.94,853.124 L 485.652,853.284 L 485.36,853.436 L 485.064,853.579 L 484.764,853.716 L 484.461,853.843 L 484.153,853.963 L 483.843,854.075 L 483.529,854.179 L 483.212,854.273 L 482.892,854.359 L 482.569,854.437 L 482.244,854.507 L 481.916,854.568 L 481.584,854.619 L 481.251,854.66 L 480.916,854.693 L 480.576,854.719 L 480.235,854.732 L 479.896,854.737 L 369.467,854.737 L 369.128,854.732 L 368.787,854.719 L 368.447,854.693 L 368.112,854.66 L 367.779,854.619 L 367.447,854.568 L 367.119,854.507 L 366.793,854.437 L 366.471,854.359 L 366.151,854.273 L 365.833,854.179 L 365.52,854.075 L 365.209,853.963 L 364.901,853.843 L 364.599,853.716 L 364.299,853.579 L 364.003,853.436 L 363.711,853.284 L 363.423,853.124 L 363.139,852.96 L 362.86,852.788 L 362.583,852.604 L 362.309,852.415 L 362.043,852.221 L 361.78,852.02 L 361.521,851.811 L 361.269,851.596 L 361.021,851.375 L 360.777,851.147 L 360.537,850.911 L 360.305,850.671 L 360.077,850.424 L 359.855,850.172 L 359.639,849.915 L 359.425,849.649 L 359.22,849.379 L 359.02,849.104 L 358.827,848.824 L 358.637,848.537 L 358.456,848.247 L 358.281,847.951 L 358.111,847.648 L 357.945,847.34 L 357.789,847.032 L 357.641,846.717 L 357.497,846.397 L 357.36,846.072 L 357.232,845.744 L 357.108,845.412 L 356.993,845.076 L 356.885,844.735 L 356.784,844.391 L 356.691,844.043 L 356.605,843.692 L 356.528,843.337 L 356.457,842.979 L 356.395,842.619 L 356.339,842.255 L 356.293,841.887 L 356.256,841.517 L 356.225,841.147 L 356.203,840.769 L 356.191,840.392 L 356.187,840.016 L 356.187,580.579 L 356.191,580.203 L 356.203,579.824 L 355.205,579.768 L 355.193,580.176 L 355.187,580.572 L 355.187,840.023 L 355.193,840.419 L 355.205,840.827 L 355.231,841.232 L 355.261,841.627 L 355.301,842.023 L 355.352,842.42 L 355.411,842.813 L 355.479,843.201 L 355.555,843.585 L 355.637,843.967 L 355.731,844.345 L 355.829,844.719 L 355.939,845.089 L 356.055,845.455 L 356.18,845.82 L 356.312,846.176 L 356.451,846.528 L 356.599,846.876 L 356.751,847.219 L 356.912,847.557 L 357.081,847.893 L 357.257,848.224 L 357.441,848.548 L 357.629,848.864 L 357.824,849.176 L 358.027,849.487 L 358.236,849.787 L 358.449,850.081 L 358.671,850.373 L 358.9,850.66 L 359.132,850.935 L 359.371,851.208 L 359.617,851.472 L 359.865,851.729 L 360.124,851.984 L 360.387,852.229 L 360.653,852.465 L 360.924,852.697 L 361.204,852.923 L 361.485,853.137 L 361.771,853.347 L 362.063,853.551 L 362.361,853.745 L 362.664,853.933 L 362.969,854.112 L 363.279,854.28 L 363.593,854.444 L 363.909,854.597 L 364.231,854.744 L 364.56,854.883 L 364.889,855.012 L 365.224,855.133 L 365.561,855.243 L 365.903,855.345 L 366.247,855.437 L 366.593,855.521 L 366.943,855.597 L 367.297,855.661 L 367.656,855.719 L 368.013,855.763 L 368.369,855.796 L 368.736,855.824 L 369.104,855.837 L 369.461,855.845 L 479.901,855.845 L 480.259,855.837 L 480.627,855.824 L 480.993,855.796 L 481.349,855.763 L 481.707,855.719 L 482.065,855.661 L 482.42,855.597 L 482.769,855.521 L 483.116,855.437 L 483.46,855.345 L 483.801,855.243 L 484.139,855.133 L 484.473,855.012 L 484.803,854.883 L 485.132,854.744 L 485.453,854.597 L 485.769,854.444 L 486.084,854.28 L 486.393,854.112 L 486.699,853.933 L 487.001,853.745 L 487.3,853.551 L 487.592,853.347 L 487.877,853.137 L 488.159,852.923 L 488.439,852.697 L 488.709,852.465 L 488.976,852.229 L 489.239,851.984 L 489.497,851.729 L 489.745,851.472 L 489.992,851.208 L 490.231,850.935 L 490.463,850.66 L 490.692,850.373 L 490.913,850.081 L 491.127,849.787 L 491.336,849.487 L 491.539,849.176 L 491.733,848.864 L 491.921,848.548 L 492.105,848.224 L 492.281,847.893 L 492.451,847.557 L 492.612,847.219 L 492.764,846.876 L 492.912,846.528 L 493.051,846.176 L 493.183,845.82 L 493.308,845.455 L 493.424,845.089 L 493.533,844.719 L 493.632,844.345 L 493.725,843.967 L 493.808,843.585 L 493.884,843.201 L 493.952,842.813 L 494.011,842.42 L 494.061,842.023 L 494.101,841.627 L 494.132,841.232 L 494.157,840.827 L 494.169,840.419 L 494.176,840.023 L 494.176,580.572 L 494.169,580.176 L 494.157,579.768 L 494.132,579.363 L 494.101,578.968 L 494.061,578.572 L 494.011,578.173 L 493.952,577.781 L 493.884,577.393 L 493.808,577.009 L 493.725,576.628 L 493.632,576.249 L 493.533,575.876 L 493.424,575.505 L 493.308,575.14 L 493.183,574.775 L 493.051,574.419 L 492.912,574.067 L 492.764,573.719 L 492.612,573.376 L 492.451,573.037 L 492.281,572.701 L 492.105,572.371 L 491.921,572.047 L 491.733,571.731 L 491.539,571.419 L 491.336,571.108 L 491.127,570.808 L 490.913,570.513 L 490.692,570.221 L 490.463,569.935 L 490.231,569.66 L 489.992,569.387 L 489.745,569.123 L 489.497,568.865 L 489.239,568.611 L 488.976,568.365 L 488.709,568.129 L 488.439,567.897 L 488.159,567.672 L 487.877,567.457 L 487.592,567.248 L 487.3,567.044 L 487.001,566.849 L 486.699,566.661 L 486.393,566.483 L 486.084,566.315 L 485.769,566.151 L 485.453,565.996 L 485.132,565.851 L 484.803,565.712 L 484.473,565.583 L 484.139,565.461 L 483.801,565.352 L 483.46,565.249 L 483.116,565.157 L 482.769,565.073 L 482.42,564.997 L 482.065,564.932 L 481.707,564.876 L 481.349,564.832 L 480.993,564.799 L 480.627,564.771 L 480.259,564.757 L 479.901,564.749 L 369.461,564.749 L 369.104,564.757 L 368.736,564.771 L 368.369,564.799 L 368.013,564.832 L 367.656,564.876 L 367.297,564.932 L 366.943,564.997 L 366.593,565.073 L 366.247,565.157 L 365.903,565.249 L 365.561,565.352 L 365.224,565.461 L 364.889,565.583 L 364.56,565.712 L 364.231,565.851 L 363.909,565.996 L 363.593,566.151 L 363.279,566.315 L 362.969,566.483 L 362.664,566.661 L 362.361,566.849 L 362.063,567.044 L 361.771,567.248 L 361.485,567.457 L 361.204,567.672 L 360.924,567.897 L 360.653,568.129 L 360.387,568.365 L 360.124,568.611 L 359.865,568.865 L 359.617,569.123 L 359.371,569.387 L 359.132,569.66 L 358.9,569.935 L 358.671,570.221 L 358.449,570.513 L 358.236,570.808 L 358.027,571.108 L 357.824,571.419 L 357.629,571.731 L 357.441,572.047 L 357.257,572.371 L 357.081,572.701 L 356.912,573.037 L 356.751,573.376 L 356.599,573.719 L 356.451,574.067 L 356.312,574.419 L 356.18,574.775 L 356.055,575.14 L 355.939,575.505 L 355.829,575.876 L 355.731,576.249 L 355.637,576.628 L 355.555,577.009 L 355.479,577.393 L 355.411,577.781 L 355.352,578.173 L 355.301,578.572 L 355.261,578.968 L 355.231,579.363 L 355.205,579.768 Z "/>
		</g>
		<path id="dp_path007" fill="white" fill-rule="evenodd" stroke="black" stroke-width="2" d="M 362.868,593.201 L 486.851,593.201 L 486.851,824.837 L 362.868,824.837 Z "/>
		<path id="dp_path008" fill="white" fill-rule="evenodd" stroke="black" stroke-width="2" d="M 424.687,829.413 C 429.465,829.413 433.34,833.288 433.34,838.067 C 433.34,842.845 429.465,846.72 424.687,846.72 C 419.908,846.72 416.033,842.845 416.033,838.067 C 416.033,833.288 419.908,829.413 424.687,829.413 Z "/>
		<path id="dp_path009" fill="white" fill-rule="evenodd" stroke="black" stroke-width="2" d="M 424.677,573.644 C 425.701,573.644 426.532,574.475 426.532,575.499 C 426.532,576.523 425.701,577.353 424.677,577.353 C 423.653,577.353 422.823,576.523 422.823,575.499 C 422.823,574.475 423.653,573.644 424.677,573.644 Z "/>
		<path id="dp_path010" fill="white" fill-rule="evenodd" stroke="black" stroke-width="2" d="M 412.713,584.601 C 412.713,584.028 413.179,583.563 413.752,583.563 L 436.401,583.563 C 436.975,583.563 437.44,584.028 437.44,584.601 L 437.44,584.6 C 437.44,585.173 436.975,585.639 436.401,585.639 L 413.752,585.639 C 413.179,585.639 412.713,585.173 412.713,584.6 Z "/>
	</g>
</svg>